<svg width="200" height="102" viewBox="0 0 200 102" fill="none" xmlns="http://www.w3.org/2000/svg">
<path fill-rule="evenodd" clip-rule="evenodd" d="M198.48 7.51689C197.635 6.16554 197.044 4.72973 196.199 3.29392C195.355 1.85811 194.89 1.18243 194.257 0L7.8125 0L7.34797 0.717905L5.91216 2.57601C4.64527 4.22297 3.20946 5.99662 1.90034 7.72804C1.35969 8.6254 0.722448 9.46089 0 10.2196L0 87.7112C0.586052 88.379 1.23674 88.9873 1.94257 89.527L3.08277 90.7095C3.68143 91.1596 4.23321 91.6689 4.72973 92.2297L5.48986 92.9054C6.35423 93.5519 7.13448 94.3038 7.8125 95.1436H21.9172C22.4078 95.2082 22.9047 95.2082 23.3953 95.1436V87.7112H29.9831V95.228L73.3953 95.228L73.6064 95.4814C74.2399 95.9882 74.7466 96.6216 75.4223 97.0862C76.098 97.5507 77.196 98.8176 78.125 99.5355C78.8072 99.9932 79.4189 100.548 79.9409 101.182H120.059L126.689 95.228H168.919C169.353 95.2928 169.794 95.2928 170.228 95.228V87.7112H176.816V95.228H194.257C194.732 94.6917 195.156 94.112 195.524 93.4966L200 87.7112V10.2196L199.62 9.62838C199.282 8.9527 198.902 8.19257 198.48 7.51689ZM28.5895 68.2432H20.6926V61.951H28.5895V68.2432ZM28.5895 53.9696H20.6926L20.6926 47.6351H28.5895L28.5895 53.9696ZM28.5895 41.3007H20.6926V34.924H28.5895V41.3007ZM28.5895 26.9848H20.6926V20.6503H28.5895V26.9848ZM115.921 20.6503L123.86 20.6503V26.9426L115.921 26.9426V20.6503ZM115.921 34.924H123.86V41.2585H115.921V34.924ZM115.921 47.5929H123.86V53.9274H115.921V47.5929ZM104.814 20.6503H112.753V26.9426H104.814V20.6503ZM104.814 34.924H112.753V41.2585H104.814V34.924ZM104.814 47.5929H112.753V53.9274H104.814V47.5929ZM93.7078 20.6503H101.562V26.9426H93.7078V20.6503ZM93.7078 34.924L101.562 34.924V41.2585L93.7078 41.2585V34.924ZM93.7078 47.5929L101.562 47.5929V53.9274L93.7078 53.9274V47.5929ZM79.4341 20.6503L87.2888 20.6503V26.9426L79.4341 26.9426V20.6503ZM79.4341 34.924H87.2888V41.2585H79.4341V34.924ZM79.4341 47.5929H87.2888V53.9274H79.4341V47.5929ZM65.1182 20.6503H73.0152V26.9426H65.1182V20.6503ZM65.1182 34.924H73.0152V41.2585H65.1182V34.924ZM65.1182 47.5929H73.0152V53.9274H65.1182V47.5929ZM50.6757 20.6503L58.6993 20.6503V26.9426L50.6757 26.9426V20.6503ZM50.6757 34.924H58.6993V41.2585H50.6757V34.924ZM50.6757 47.5929H58.6993V53.9274H50.6757V47.5929ZM34.9662 20.6503H42.8632V26.9426H34.9662V20.6503ZM34.9662 34.924H42.8632V41.2585H34.9662V34.924ZM34.9662 47.5929H42.8632V53.9274H34.9662V47.5929ZM107.939 68.201L34.9662 68.201V61.951L107.939 61.951L107.939 68.201ZM125.422 68.201H111.191L111.191 61.951H125.422L125.422 68.201ZM173.142 20.6503H181.081V26.9426H173.142V20.6503ZM162.035 20.6503H169.975V26.9426H161.951L162.035 20.6503ZM160.473 69.8057H152.449V61.951H160.473V69.8057ZM160.473 41.2585H152.449V34.924H160.473V41.2585ZM160.473 26.9426H152.449V20.6503H160.473V26.9426ZM162.078 34.924L170.017 34.924V41.2585L161.951 41.2585L162.078 34.924ZM173.142 69.8057H165.16V61.951L173.142 61.951V69.8057ZM173.142 57.1368L165.16 57.1368V50.6757L173.142 50.6757V57.1368ZM173.142 34.9662H181.081V41.3007H173.142V34.9662ZM184.248 69.848H176.267V61.951H184.164L184.248 69.848Z" fill="black"/>
</svg>
