<svg width="116" height="113" viewBox="0 0 116 113" fill="none" xmlns="http://www.w3.org/2000/svg">
<path fill-rule="evenodd" clip-rule="evenodd" d="M32.3909 11.9513V0.945312H28.651V10.8827C28.5973 11.2369 28.5973 11.5971 28.651 11.9513H32.3909Z" fill="black"/>
<path fill-rule="evenodd" clip-rule="evenodd" d="M40.4406 11.9513C40.8066 12.0059 41.1787 12.0059 41.5447 11.9513V0.945312H37.9829V10.8827C37.9292 11.2369 37.9292 11.5971 37.9829 11.9513H40.4406Z" fill="black"/>
<path fill-rule="evenodd" clip-rule="evenodd" d="M50.6627 0.945312H47.101V11.9513H50.6627V0.945312Z" fill="black"/>
<path fill-rule="evenodd" clip-rule="evenodd" d="M59.8167 0.945312H56.2549V10.8827C56.2174 11.2379 56.2174 11.5961 56.2549 11.9513H59.8167V0.945312Z" fill="black"/>
<path fill-rule="evenodd" clip-rule="evenodd" d="M68.9703 11.9156V0.945312H65.4085V10.8827C65.371 11.2379 65.371 11.5961 65.4085 11.9513H67.973C68.3054 11.9863 68.6412 11.9743 68.9703 11.9156Z" fill="black"/>
<path fill-rule="evenodd" clip-rule="evenodd" d="M74.3131 0.945312V11.9513H77.8749V0.945312H74.3131Z" fill="black"/>
<path fill-rule="evenodd" clip-rule="evenodd" d="M83.6094 0.945312V11.9513H87.1712V0.945312H83.6094Z" fill="black"/>
<path fill-rule="evenodd" clip-rule="evenodd" d="M100.065 19.9295L98.462 18.3623C96.8948 16.8307 95.3632 15.2635 93.8316 13.7319H22.097L15.8639 19.9651V91.6641L22.0614 97.8616C22.3451 97.8234 22.6326 97.8234 22.9163 97.8616H93.8316C95.9331 95.7958 97.9989 93.6943 100.1 91.5928V26.4119C100.173 25.9279 100.173 25.4357 100.1 24.9516L100.065 19.9295ZM92.122 90.1681C91.3028 90.7736 89.415 90.5599 87.9903 90.5599H27.7959C26.1931 90.5599 24.2341 90.8092 23.593 89.8475C23.2014 88.9397 23.0659 87.9419 23.2012 86.9625V24.8091C23.0697 23.9474 23.0697 23.0707 23.2012 22.209C23.3273 21.9646 23.5035 21.7494 23.7183 21.5776C23.9331 21.4058 24.1817 21.2811 24.4478 21.2117H24.9465H87.0286C88.5246 21.2117 91.1959 20.9624 92.0507 21.6035C92.9056 22.2446 92.7275 24.0968 92.7275 25.6283V86.4282C92.7275 87.8886 92.9056 89.527 92.122 90.1681Z" fill="black"/>
<path fill-rule="evenodd" clip-rule="evenodd" d="M61.5263 27.4452L54.4027 34.3551L52.3724 36.3853C52.0661 36.7803 51.6923 37.1179 51.2683 37.3826C50.4184 37.5121 49.5537 37.5121 48.7038 37.3826H43.3255C43.3255 39.1635 43.3255 40.4102 42.1857 40.9444C41.1938 41.0907 40.1857 41.0907 39.1938 40.9444H35.1333C34.4974 41.0592 33.846 41.0592 33.21 40.9444C32.9633 40.7993 32.7502 40.6038 32.5844 40.3705C32.4187 40.1372 32.3041 39.8716 32.2483 39.591V31.5769C32.3196 31.311 32.4493 31.0643 32.628 30.8548C32.8067 30.6453 33.0298 30.4783 33.2812 30.3659C34.0368 30.2527 34.8051 30.2527 35.5608 30.3659H40.0842C40.9011 30.244 41.7356 30.381 42.4706 30.7577C43.2542 31.3276 43.1474 32.6454 43.1474 33.9989H49.7723L58.8905 24.8807H26.8344V46.8926H35.1333C36.3147 46.7255 37.5138 46.7255 38.6951 46.8926C39.2294 47.1776 39.3006 47.6762 39.6568 48.1749V54.7286C39.5488 55.723 39.5488 56.7261 39.6568 57.7205H44.679C45.4481 57.8104 46.225 57.8104 46.9941 57.7205C46.9941 56.0108 46.9941 54.693 48.0627 54.1587C49.0068 54.0123 49.9679 54.0123 50.9121 54.1587H54.8301C55.456 54.0671 56.0919 54.0671 56.7178 54.1587C56.9939 54.2761 57.2417 54.4513 57.4444 54.6725C57.6472 54.8937 57.8002 55.1557 57.8932 55.4409V61.8878C57.9843 62.5257 57.9843 63.1733 57.8932 63.8112C57.7268 64.2605 57.3958 64.6298 56.9672 64.8441C56.1909 64.9958 55.3926 64.9958 54.6164 64.8441H50.2354C49.5511 64.9533 48.8538 64.9533 48.1695 64.8441C47.4572 64.5948 47.4215 64.0961 47.0297 63.4906C47.1196 62.7572 47.1196 62.0157 47.0297 61.2823H39.9061C38.8187 61.4444 37.7075 61.2962 36.7005 60.8549C35.9882 60.3206 36.1306 59.074 36.1306 57.8274V50.3476H26.8344V86.9272H63.6277V80.6229C63.7353 79.6642 63.7353 78.6965 63.6277 77.7378H52.4793C52.4793 79.0557 52.4793 80.4448 51.8738 80.979C51.0967 81.3838 50.2118 81.5334 49.3449 81.4065H44.9283C44.1617 81.5327 43.3797 81.5327 42.6131 81.4065C42.368 81.3036 42.1485 81.1482 41.9701 80.9513C41.7916 80.7544 41.6585 80.5207 41.5802 80.2667C41.5802 79.6612 41.5802 79.02 41.5802 78.4145V71.9321C41.6457 71.6409 41.7757 71.3681 41.9606 71.1339C42.1456 70.8996 42.3807 70.7099 42.6487 70.5786C43.2745 70.4844 43.9108 70.4844 44.5365 70.5786H51.1614C52.5505 71.006 52.4793 72.3951 52.4793 74.1404H62.8441C64.2332 74.1404 66.0497 73.9267 66.6909 74.7103C67.1739 75.8938 67.3456 77.1814 67.1895 78.4502V86.9272H86.6013L79.0859 79.305L77.3763 77.5953C76.9516 77.2773 76.6096 76.862 76.379 76.3843C76.2523 75.5581 76.2523 74.7173 76.379 73.8911V68.6196C74.9542 68.6196 73.6364 68.6196 73.0665 67.9072C72.7108 67.1655 72.5749 66.3374 72.6747 65.5208V61.0686C72.5451 60.3143 72.5451 59.5434 72.6747 58.789C72.8573 58.3467 73.201 57.9903 73.6364 57.7917C74.2859 57.6967 74.9458 57.6967 75.5954 57.7917H82.0422C82.3379 57.8585 82.614 57.993 82.8488 58.1846C83.0837 58.3762 83.2709 58.6197 83.3957 58.8959C83.507 59.5202 83.507 60.1593 83.3957 60.7836V64.5948C83.5408 65.551 83.5408 66.5236 83.3957 67.4798C82.9327 68.7977 81.6148 68.7265 79.8339 68.7265V75.3158L88.9877 84.434V33.8565H70.7513V39.3772C72.461 39.3772 73.8145 39.3772 74.3131 40.4814C74.4596 41.4494 74.4596 42.434 74.3131 43.4021V47.2488C74.4072 47.8865 74.4072 48.5345 74.3131 49.1722C74.1898 49.4392 74.0068 49.6744 73.7784 49.8596C73.5499 50.0449 73.282 50.1752 72.9952 50.2407H70.3951H66.5484C65.9123 50.354 65.2611 50.354 64.625 50.2407C64.158 50.0279 63.789 49.6461 63.5921 49.1722C63.4632 48.4178 63.4632 47.647 63.5921 46.8926V42.4404C63.4826 41.5968 63.6316 40.7398 64.0195 39.9827C64.5538 39.2348 65.9429 39.3416 67.2251 39.3772V33.9277C67.0945 33.0778 67.0945 32.213 67.2251 31.3632C67.5101 30.6152 67.9731 30.6152 68.6142 30.2234H87.1356C87.7974 30.3133 88.4684 30.3133 89.1302 30.2234V24.7026H64.1976L61.5263 27.4452ZM54.4027 46.6789H50.8409V43.1171H54.4027V46.6789ZM36.0238 77.7378H32.462V74.176H36.0238V77.7378ZM79.9764 43.0459H83.5382V46.6077H79.9764V43.0459ZM63.6277 61.0686H67.1895V64.6304H63.6277V61.0686Z" fill="black"/>
<path fill-rule="evenodd" clip-rule="evenodd" d="M3.07727 30.2244H14.0476V26.6626H3.07727V30.2244Z" fill="black"/>
<path fill-rule="evenodd" clip-rule="evenodd" d="M101.881 30.2244H112.887V26.6626H101.881V30.2244Z" fill="black"/>
<path fill-rule="evenodd" clip-rule="evenodd" d="M39.6924 37.5603V33.9985H36.1306V37.5603H39.6924Z" fill="black"/>
<path fill-rule="evenodd" clip-rule="evenodd" d="M3.07727 39.3772H14.0476V35.8154H3.07727V39.3772Z" fill="black"/>
<path fill-rule="evenodd" clip-rule="evenodd" d="M101.881 39.3772H112.887V35.8154H101.881V39.3772Z" fill="black"/>
<path fill-rule="evenodd" clip-rule="evenodd" d="M67.1896 46.7146H70.7514V43.1528H67.1896V46.7146Z" fill="black"/>
<path fill-rule="evenodd" clip-rule="evenodd" d="M3.07727 48.5305H14.0476V44.9688H3.07727V48.5305Z" fill="black"/>
<path fill-rule="evenodd" clip-rule="evenodd" d="M101.881 48.5305H112.887V44.9688H101.881V48.5305Z" fill="black"/>
<path fill-rule="evenodd" clip-rule="evenodd" d="M3.07727 57.6853H14.0476V54.1235H3.07727V57.6853Z" fill="black"/>
<path fill-rule="evenodd" clip-rule="evenodd" d="M101.881 57.6853H112.887V54.1235H101.881V57.6853Z" fill="black"/>
<path d="M52.4794 62.0669C53.935 62.0669 55.1151 60.9028 55.1151 59.4668C55.1151 58.0308 53.935 56.8667 52.4794 56.8667C51.0237 56.8667 49.8436 58.0308 49.8436 59.4668C49.8436 60.9028 51.0237 62.0669 52.4794 62.0669Z" fill="black"/>
<path fill-rule="evenodd" clip-rule="evenodd" d="M79.9764 62.4229C80.032 62.045 80.032 61.661 79.9764 61.2831H77.4475C77.0695 61.2285 76.6857 61.2285 76.3077 61.2831V64.8449H80.0476L79.9764 62.4229Z" fill="black"/>
<path d="M8.56232 67.5518C12.8507 67.5518 16.327 66.3877 16.327 64.9517C16.327 63.5157 12.8507 62.3516 8.56232 62.3516C4.27399 62.3516 0.797607 63.5157 0.797607 64.9517C0.797607 66.3877 4.27399 67.5518 8.56232 67.5518Z" fill="black"/>
<path d="M107.402 67.5518C111.71 67.5518 115.202 66.3877 115.202 64.9517C115.202 63.5157 111.71 62.3516 107.402 62.3516C103.094 62.3516 99.6018 63.5157 99.6018 64.9517C99.6018 66.3877 103.094 67.5518 107.402 67.5518Z" fill="black"/>
<path fill-rule="evenodd" clip-rule="evenodd" d="M3.07727 75.9571H14.0476V72.1816H3.07727V75.9571Z" fill="black"/>
<path fill-rule="evenodd" clip-rule="evenodd" d="M101.881 75.9571H112.887V72.1816H101.881V75.9571Z" fill="black"/>
<path fill-rule="evenodd" clip-rule="evenodd" d="M45.1421 77.7727H48.7039V74.2109H45.1421V77.7727Z" fill="black"/>
<path fill-rule="evenodd" clip-rule="evenodd" d="M3.07727 85.1101H14.0476V81.5483H3.07727V85.1101Z" fill="black"/>
<path fill-rule="evenodd" clip-rule="evenodd" d="M101.881 83.9704C101.827 84.3483 101.827 84.7322 101.881 85.1101H112.852V81.5483H101.881V83.9704Z" fill="black"/>
<path fill-rule="evenodd" clip-rule="evenodd" d="M28.6509 99.7149C28.6509 103.277 28.6509 107.052 28.6509 110.685H32.2127V99.6793H29.8263C29.4342 99.6549 29.0407 99.6668 28.6509 99.7149Z" fill="black"/>
<path fill-rule="evenodd" clip-rule="evenodd" d="M37.8403 99.6791V110.685H40.3692C40.7591 110.74 41.1547 110.74 41.5446 110.685V100.676C41.5808 100.321 41.5808 99.9632 41.5446 99.6079L37.8403 99.6791Z" fill="black"/>
<path d="M48.8107 113C50.2467 113 51.4108 109.508 51.4108 105.2C51.4108 100.892 50.2467 97.3994 48.8107 97.3994C47.3747 97.3994 46.2106 100.892 46.2106 105.2C46.2106 109.508 47.3747 113 48.8107 113Z" fill="black"/>
<path fill-rule="evenodd" clip-rule="evenodd" d="M56.1124 99.7155V110.686H59.6742V99.6799H57.1097C56.7769 99.6636 56.4433 99.6756 56.1124 99.7155Z" fill="black"/>
<path fill-rule="evenodd" clip-rule="evenodd" d="M65.266 99.7136C65.266 103.275 65.266 107.051 65.266 110.684H68.8278V99.678H66.2989C65.9542 99.6609 65.6087 99.6728 65.266 99.7136Z" fill="black"/>
<path fill-rule="evenodd" clip-rule="evenodd" d="M74.3131 110.686H77.8749V99.6797H74.3131V110.686Z" fill="black"/>
<path d="M85.426 113C86.862 113 88.0262 109.508 88.0262 105.2C88.0262 100.892 86.862 97.3994 85.426 97.3994C83.99 97.3994 82.8259 100.892 82.8259 105.2C82.8259 109.508 83.99 113 85.426 113Z" fill="black"/>
</svg>
