<svg width="100" height="172" viewBox="0 0 100 172" fill="none" xmlns="http://www.w3.org/2000/svg">
<path d="M46.901 147.55C43.5788 147.55 40.8766 150.251 40.8766 153.574C40.8766 156.896 43.5802 159.6 46.901 159.6C50.2218 159.6 52.9254 156.896 52.9254 153.574C52.9254 150.252 50.2232 147.55 46.901 147.55Z" fill="black"/>
<path d="M18.2866 131.42L76.6097 105.11C76.864 101.706 77.0826 98.3244 77.2695 94.9995L16.6276 122.344C16.8805 124.189 17.3863 127.394 18.2852 131.42H18.2866Z" fill="black"/>
<path d="M99.9776 93.6357L99.9597 92.9773L99.6133 92.4137C99.5529 92.3134 93.4598 82.2973 92.5182 74.4639L92.4453 73.8509L83.0644 60.4494L83.063 39.8525L53.1055 22.4457V32.7172H50.1916L50.1902 0H45.264V32.7162H42.7417V23.0907L13.1924 38.0646V43.6714L4.05886 49.7606V71.3473L11.4992 79.1269V86.8255L0 103.064V136.273L27.721 166.075L28.213 166.483C28.5498 166.694 36.6098 171.672 47.7132 171.672H47.7145C54.271 171.672 60.522 169.938 66.2966 166.518L66.6018 166.337L84.4347 147.132L84.744 146.718C85.3969 145.63 100.662 119.754 99.9777 93.6346L99.9776 93.6357ZM62.5769 51.4073H70.1148V56.3335H67.5032V71.291H62.577L62.5769 51.4073ZM28.3256 42.7065H33.2518V80.255H28.3256V42.7065ZM28.3256 84.0587H33.2518V94.4608H28.3256V84.0587ZM13.1908 53.869H18.117V65.2841H13.1908V53.869ZM46.8978 164.519C40.8596 164.519 35.9471 159.607 35.9471 153.567C35.9471 147.532 40.8596 142.616 46.8978 142.616C52.9359 142.616 57.8485 147.529 57.8485 153.567C57.8485 159.607 52.9359 164.519 46.8978 164.519ZM78.6544 132.184C77.6909 138.678 76.5198 144.759 75.0903 149.953L65.3244 160.47C69.9786 154.635 73.0448 139.407 75.0188 122.175L22.3926 145.613C24.1685 150.532 26.4378 155.68 29.3365 160.579L18.2306 148.64C12.8276 134.339 11.5739 121.773 11.5081 121.074L11.526 121.073C11.5205 120.996 11.4957 120.921 11.4957 120.842V95.3461L16.422 88.3923V117.032L37.812 107.384V42.7026H42.7382V95.0051L53.1006 89.9483V42.7022H58.0268V93.0272L42.7382 100.484V105.161L77.5544 89.4603C78.0712 78.6634 78.2664 68.9277 78.2677 62.1929L82.9948 68.9471C82.8354 79.7053 82.2663 99.912 80.2637 119.184C87.9609 102.564 89.349 85.6407 89.5387 82.6772C90.7648 86.1162 92.3015 89.3118 93.5001 91.5852C91.9799 101.556 88.1435 117.935 78.6542 132.181L78.6544 132.184Z" fill="black"/>
<path d="M20.82 140.927L75.6244 116.518C75.8168 114.595 75.9955 112.661 76.1604 110.719L19.4806 136.29C19.8764 137.777 20.3218 139.328 20.818 140.928L20.82 140.927Z" fill="black"/>
</svg>
