<?xml version="1.0" encoding="UTF-8"?>
<svg width="700pt" height="700pt" version="1.1" viewBox="0 0 700 700" xmlns="http://www.w3.org/2000/svg" xmlns:xlink="http://www.w3.org/1999/xlink">
 <defs>
  <symbol id="u" overflow="visible">
   <path d="m18.766-1.125c-0.96875 0.5-1.9805 0.875-3.0312 1.125-1.043 0.25781-2.1367 0.39062-3.2812 0.39062-3.3984 0-6.0898-0.94531-8.0781-2.8438-1.9922-1.9062-2.9844-4.4844-2.9844-7.7344 0-3.2578 0.99219-5.8359 2.9844-7.7344 1.9883-1.9062 4.6797-2.8594 8.0781-2.8594 1.1445 0 2.2383 0.13281 3.2812 0.39062 1.0508 0.25 2.0625 0.625 3.0312 1.125v4.2188c-0.98047-0.65625-1.9453-1.1406-2.8906-1.4531-0.94922-0.3125-1.9492-0.46875-3-0.46875-1.875 0-3.3516 0.60547-4.4219 1.8125-1.0742 1.1992-1.6094 2.8555-1.6094 4.9688 0 2.1055 0.53516 3.7617 1.6094 4.9688 1.0703 1.1992 2.5469 1.7969 4.4219 1.7969 1.0508 0 2.0508-0.14844 3-0.45312 0.94531-0.3125 1.9102-0.80078 2.8906-1.4688z"/>
  </symbol>
  <symbol id="b" overflow="visible">
   <path d="m13.734-11.141c-0.4375-0.19531-0.87109-0.34375-1.2969-0.4375-0.41797-0.10156-0.83984-0.15625-1.2656-0.15625-1.2617 0-2.2305 0.40625-2.9062 1.2188-0.67969 0.80469-1.0156 1.9531-1.0156 3.4531v7.0625h-4.8906v-15.312h4.8906v2.5156c0.625-1 1.3438-1.7266 2.1562-2.1875 0.82031-0.46875 1.8008-0.70312 2.9375-0.70312 0.16406 0 0.34375 0.011719 0.53125 0.03125 0.19531 0.011719 0.47656 0.039062 0.84375 0.078125z"/>
  </symbol>
  <symbol id="a" overflow="visible">
   <path d="m17.641-7.7031v1.4062h-11.453c0.125 1.1484 0.53906 2.0078 1.25 2.5781 0.70703 0.57422 1.7031 0.85938 2.9844 0.85938 1.0312 0 2.082-0.14844 3.1562-0.45312 1.082-0.3125 2.1914-0.77344 3.3281-1.3906v3.7656c-1.1562 0.4375-2.3125 0.76562-3.4688 0.98438-1.1562 0.22656-2.3125 0.34375-3.4688 0.34375-2.7734 0-4.9297-0.70312-6.4688-2.1094-1.5312-1.4062-2.2969-3.3789-2.2969-5.9219 0-2.5 0.75391-4.4609 2.2656-5.8906 1.5078-1.4375 3.582-2.1562 6.2188-2.1562 2.4062 0 4.332 0.73047 5.7812 2.1875 1.4453 1.4492 2.1719 3.3828 2.1719 5.7969zm-5.0312-1.625c0-0.92578-0.27344-1.6719-0.8125-2.2344-0.54297-0.57031-1.25-0.85938-2.125-0.85938-0.94922 0-1.7188 0.26562-2.3125 0.79688s-0.96484 1.2969-1.1094 2.2969z"/>
  </symbol>
  <symbol id="f" overflow="visible">
   <path d="m9.2188-6.8906c-1.0234 0-1.793 0.17188-2.3125 0.51562-0.51172 0.34375-0.76562 0.85547-0.76562 1.5312 0 0.625 0.20703 1.1172 0.625 1.4688 0.41406 0.34375 0.98828 0.51562 1.7188 0.51562 0.92578 0 1.7031-0.32812 2.3281-0.98438 0.63281-0.66406 0.95312-1.4922 0.95312-2.4844v-0.5625zm7.4688-1.8438v8.7344h-4.9219v-2.2656c-0.65625 0.92969-1.3984 1.6055-2.2188 2.0312-0.82422 0.41406-1.8242 0.625-3 0.625-1.5859 0-2.8711-0.45703-3.8594-1.375-0.99219-0.92578-1.4844-2.1289-1.4844-3.6094 0-1.7891 0.61328-3.1016 1.8438-3.9375 1.2383-0.84375 3.1797-1.2656 5.8281-1.2656h2.8906v-0.39062c0-0.76953-0.30859-1.332-0.92188-1.6875-0.61719-0.36328-1.5703-0.54688-2.8594-0.54688-1.0547 0-2.0312 0.10547-2.9375 0.3125-0.89844 0.21094-1.7305 0.52344-2.5 0.9375v-3.7344c1.0391-0.25 2.0859-0.44141 3.1406-0.57812 1.0625-0.13281 2.125-0.20312 3.1875-0.20312 2.7578 0 4.75 0.54688 5.9688 1.6406 1.2266 1.0859 1.8438 2.8555 1.8438 5.3125z"/>
  </symbol>
  <symbol id="d" overflow="visible">
   <path d="m7.7031-19.656v4.3438h5.0469v3.5h-5.0469v6.5c0 0.71094 0.14062 1.1875 0.42188 1.4375s0.83594 0.375 1.6719 0.375h2.5156v3.5h-4.1875c-1.9375 0-3.3125-0.39844-4.125-1.2031-0.80469-0.8125-1.2031-2.1797-1.2031-4.1094v-6.5h-2.4219v-3.5h2.4219v-4.3438z"/>
  </symbol>
  <symbol id="j" overflow="visible">
   <path d="m12.766-13.078v-8.2031h4.9219v21.281h-4.9219v-2.2188c-0.66797 0.90625-1.4062 1.5703-2.2188 1.9844s-1.7578 0.625-2.8281 0.625c-1.8867 0-3.4336-0.75-4.6406-2.25-1.2109-1.5-1.8125-3.4258-1.8125-5.7812 0-2.3633 0.60156-4.2969 1.8125-5.7969 1.207-1.5 2.7539-2.25 4.6406-2.25 1.0625 0 2 0.21484 2.8125 0.64062 0.82031 0.42969 1.5664 1.0859 2.2344 1.9688zm-3.2188 9.9219c1.0391 0 1.8359-0.37891 2.3906-1.1406 0.55078-0.76953 0.82812-1.8828 0.82812-3.3438 0-1.457-0.27734-2.5664-0.82812-3.3281-0.55469-0.76953-1.3516-1.1562-2.3906-1.1562-1.043 0-1.8398 0.38672-2.3906 1.1562-0.55469 0.76172-0.82812 1.8711-0.82812 3.3281 0 1.4609 0.27344 2.5742 0.82812 3.3438 0.55078 0.76172 1.3477 1.1406 2.3906 1.1406z"/>
  </symbol>
  <symbol id="i" overflow="visible">
   <path d="m10.5-3.1562c1.0508 0 1.8516-0.37891 2.4062-1.1406 0.55078-0.76953 0.82812-1.8828 0.82812-3.3438 0-1.457-0.27734-2.5664-0.82812-3.3281-0.55469-0.76953-1.3555-1.1562-2.4062-1.1562-1.0547 0-1.8594 0.38672-2.4219 1.1562-0.55469 0.77344-0.82812 1.8828-0.82812 3.3281 0 1.4492 0.27344 2.5586 0.82812 3.3281 0.5625 0.77344 1.3672 1.1562 2.4219 1.1562zm-3.25-9.9219c0.67578-0.88281 1.4219-1.5391 2.2344-1.9688 0.82031-0.42578 1.7656-0.64062 2.8281-0.64062 1.8945 0 3.4453 0.75 4.6562 2.25 1.207 1.5 1.8125 3.4336 1.8125 5.7969 0 2.3555-0.60547 4.2812-1.8125 5.7812-1.2109 1.5-2.7617 2.25-4.6562 2.25-1.0625 0-2.0078-0.21094-2.8281-0.625-0.8125-0.42578-1.5586-1.0859-2.2344-1.9844v2.2188h-4.8906v-21.281h4.8906z"/>
  </symbol>
  <symbol id="c" overflow="visible">
   <path d="m0.34375-15.312h4.8906l4.125 10.391 3.5-10.391h4.8906l-6.4375 16.766c-0.64844 1.6953-1.4023 2.8828-2.2656 3.5625-0.86719 0.6875-2 1.0312-3.4062 1.0312h-2.8438v-3.2188h1.5312c0.83203 0 1.4375-0.13672 1.8125-0.40625 0.38281-0.26172 0.67969-0.73047 0.89062-1.4062l0.14062-0.42188z"/>
  </symbol>
  <symbol id="h" overflow="visible">
   <path d="m10.047-11.359c1.1016 0 1.8945-0.20312 2.375-0.60938 0.47656-0.41406 0.71875-1.0938 0.71875-2.0312 0-0.92578-0.24219-1.5859-0.71875-1.9844-0.48047-0.40625-1.2734-0.60938-2.375-0.60938h-2.2188v5.2344zm-2.2188 3.6406v7.7188h-5.25v-20.406h8.0312c2.6875 0 4.6562 0.45312 5.9062 1.3594 1.2578 0.89844 1.8906 2.3203 1.8906 4.2656 0 1.3555-0.32812 2.4648-0.98438 3.3281-0.64844 0.86719-1.625 1.5-2.9375 1.9062 0.71875 0.16797 1.3594 0.54297 1.9219 1.125 0.57031 0.57422 1.1484 1.4492 1.7344 2.625l2.8594 5.7969h-5.6094l-2.4844-5.0781c-0.5-1.0195-1.0117-1.7109-1.5312-2.0781-0.51172-0.375-1.1953-0.5625-2.0469-0.5625z"/>
  </symbol>
  <symbol id="g" overflow="visible">
   <path d="m17.75-9.3281v9.3281h-4.9219v-7.1406c0-1.3203-0.03125-2.2344-0.09375-2.7344s-0.16797-0.86719-0.3125-1.1094c-0.1875-0.3125-0.44922-0.55469-0.78125-0.73438-0.32422-0.17578-0.69531-0.26562-1.1094-0.26562-1.0234 0-1.8242 0.39844-2.4062 1.1875-0.58594 0.78125-0.875 1.8711-0.875 3.2656v7.5312h-4.8906v-15.312h4.8906v2.2344c0.73828-0.88281 1.5195-1.5391 2.3438-1.9688 0.83203-0.42578 1.75-0.64062 2.75-0.64062 1.7695 0 3.1133 0.54688 4.0312 1.6406 0.91406 1.0859 1.375 2.6562 1.375 4.7188z"/>
  </symbol>
  <symbol id="t" overflow="visible">
   <path d="m7.8281-16.438v12.453h1.8906c2.1562 0 3.8008-0.53125 4.9375-1.5938 1.1328-1.0625 1.7031-2.6133 1.7031-4.6562 0-2.0195-0.57031-3.5547-1.7031-4.6094-1.125-1.0625-2.7734-1.5938-4.9375-1.5938zm-5.25-3.9688h5.5469c3.0938 0 5.3984 0.21875 6.9219 0.65625 1.5195 0.4375 2.8203 1.1875 3.9062 2.25 0.95703 0.91797 1.6641 1.9805 2.125 3.1875 0.46875 1.1992 0.70312 2.5586 0.70312 4.0781 0 1.543-0.23438 2.918-0.70312 4.125-0.46094 1.2109-1.168 2.2773-2.125 3.2031-1.0938 1.0547-2.4062 1.8047-3.9375 2.25-1.5312 0.4375-3.8281 0.65625-6.8906 0.65625h-5.5469z"/>
  </symbol>
  <symbol id="s" overflow="visible">
   <path d="m0.98438-15.312h4.7656l2.5625 10.547 2.5781-10.547h4.0938l2.5781 10.438 2.5781-10.438h4.75l-4.0312 15.312h-5.3438l-2.5781-10.531-2.5781 10.531h-5.3438z"/>
  </symbol>
  <symbol id="r" overflow="visible">
   <path d="m12.422-21.281v3.2188h-2.7031c-0.6875 0-1.1719 0.125-1.4531 0.375-0.27344 0.25-0.40625 0.6875-0.40625 1.3125v1.0625h4.1875v3.5h-4.1875v11.812h-4.8906v-11.812h-2.4375v-3.5h2.4375v-1.0625c0-1.6641 0.46094-2.8984 1.3906-3.7031 0.92578-0.80078 2.3672-1.2031 4.3281-1.2031z"/>
  </symbol>
  <symbol id="e" overflow="visible">
   <path d="m9.6406-12.188c-1.0859 0-1.9141 0.39062-2.4844 1.1719-0.57422 0.78125-0.85938 1.9062-0.85938 3.375s0.28516 2.5938 0.85938 3.375c0.57031 0.77344 1.3984 1.1562 2.4844 1.1562 1.0625 0 1.875-0.38281 2.4375-1.1562 0.57031-0.78125 0.85938-1.9062 0.85938-3.375s-0.28906-2.5938-0.85938-3.375c-0.5625-0.78125-1.375-1.1719-2.4375-1.1719zm0-3.5c2.6328 0 4.6914 0.71484 6.1719 2.1406 1.4766 1.418 2.2188 3.3867 2.2188 5.9062 0 2.5117-0.74219 4.4805-2.2188 5.9062-1.4805 1.418-3.5391 2.125-6.1719 2.125-2.6484 0-4.7148-0.70703-6.2031-2.125-1.4922-1.4258-2.2344-3.3945-2.2344-5.9062 0-2.5195 0.74219-4.4883 2.2344-5.9062 1.4883-1.4258 3.5547-2.1406 6.2031-2.1406z"/>
  </symbol>
  <symbol id="q" overflow="visible">
   <path d="m16.547-12.766c0.61328-0.94531 1.3477-1.6719 2.2031-2.1719 0.85156-0.5 1.7891-0.75 2.8125-0.75 1.7578 0 3.0977 0.54688 4.0156 1.6406 0.92578 1.0859 1.3906 2.6562 1.3906 4.7188v9.3281h-4.9219v-7.9844-0.35938c0.007813-0.13281 0.015625-0.32031 0.015625-0.5625 0-1.082-0.16406-1.8633-0.48438-2.3438-0.3125-0.48828-0.82422-0.73438-1.5312-0.73438-0.92969 0-1.6484 0.38672-2.1562 1.1562-0.51172 0.76172-0.77344 1.8672-0.78125 3.3125v7.5156h-4.9219v-7.9844c0-1.6953-0.14844-2.7852-0.4375-3.2656-0.29297-0.48828-0.8125-0.73438-1.5625-0.73438-0.9375 0-1.6641 0.38672-2.1719 1.1562-0.51172 0.76172-0.76562 1.8594-0.76562 3.2969v7.5312h-4.9219v-15.312h4.9219v2.2344c0.60156-0.86328 1.2891-1.5156 2.0625-1.9531 0.78125-0.4375 1.6406-0.65625 2.5781-0.65625 1.0625 0 2 0.25781 2.8125 0.76562 0.8125 0.51172 1.4258 1.2305 1.8438 2.1562z"/>
  </symbol>
  <symbol id="p" overflow="visible">
   <path d="m17.75-9.3281v9.3281h-4.9219v-7.1094c0-1.3438-0.03125-2.2656-0.09375-2.7656s-0.16797-0.86719-0.3125-1.1094c-0.1875-0.3125-0.44922-0.55469-0.78125-0.73438-0.32422-0.17578-0.69531-0.26562-1.1094-0.26562-1.0234 0-1.8242 0.39844-2.4062 1.1875-0.58594 0.78125-0.875 1.8711-0.875 3.2656v7.5312h-4.8906v-21.281h4.8906v8.2031c0.73828-0.88281 1.5195-1.5391 2.3438-1.9688 0.83203-0.42578 1.75-0.64062 2.75-0.64062 1.7695 0 3.1133 0.54688 4.0312 1.6406 0.91406 1.0859 1.375 2.6562 1.375 4.7188z"/>
  </symbol>
  <symbol id="o" overflow="visible">
   <path d="m2.5781-20.406h5.875l7.4219 14v-14h4.9844v20.406h-5.875l-7.4219-14v14h-4.9844z"/>
  </symbol>
  <symbol id="n" overflow="visible">
   <path d="m2.1875-5.9688v-9.3438h4.9219v1.5312c0 0.83594-0.007813 1.875-0.015625 3.125-0.011719 1.25-0.015625 2.0859-0.015625 2.5 0 1.2422 0.03125 2.1328 0.09375 2.6719 0.070313 0.54297 0.17969 0.93359 0.32812 1.1719 0.20703 0.32422 0.47266 0.57422 0.79688 0.75 0.32031 0.16797 0.69141 0.25 1.1094 0.25 1.0195 0 1.8203-0.39062 2.4062-1.1719 0.58203-0.78125 0.875-1.8672 0.875-3.2656v-7.5625h4.8906v15.312h-4.8906v-2.2188c-0.74219 0.89844-1.5234 1.5586-2.3438 1.9844-0.82422 0.41406-1.7344 0.625-2.7344 0.625-1.7617 0-3.1055-0.53906-4.0312-1.625-0.92969-1.082-1.3906-2.6602-1.3906-4.7344z"/>
  </symbol>
  <symbol id="m" overflow="visible">
   <path d="m2.5781-20.406h8.7344c2.5938 0 4.582 0.57812 5.9688 1.7344 1.3945 1.1484 2.0938 2.7891 2.0938 4.9219 0 2.1367-0.69922 3.7812-2.0938 4.9375-1.3867 1.1562-3.375 1.7344-5.9688 1.7344h-3.4844v7.0781h-5.25zm5.25 3.8125v5.7031h2.9219c1.0195 0 1.8047-0.25 2.3594-0.75 0.5625-0.5 0.84375-1.2031 0.84375-2.1094 0-0.91406-0.28125-1.6172-0.84375-2.1094-0.55469-0.48828-1.3398-0.73438-2.3594-0.73438z"/>
  </symbol>
  <symbol id="l" overflow="visible">
   <path d="m2.3594-15.312h4.8906v15.031c0 2.0508-0.49609 3.6172-1.4844 4.7031-0.98047 1.082-2.4062 1.625-4.2812 1.625h-2.4219v-3.2188h0.85938c0.92578 0 1.5625-0.21094 1.9062-0.625 0.35156-0.41797 0.53125-1.2461 0.53125-2.4844zm0-5.9688h4.8906v4h-4.8906z"/>
  </symbol>
  <symbol id="k" overflow="visible">
   <path d="m14.719-14.828v3.9844c-0.65625-0.45703-1.3242-0.79688-2-1.0156-0.66797-0.21875-1.3594-0.32812-2.0781-0.32812-1.3672 0-2.4336 0.40234-3.2031 1.2031-0.76172 0.79297-1.1406 1.9062-1.1406 3.3438 0 1.4297 0.37891 2.543 1.1406 3.3438 0.76953 0.79297 1.8359 1.1875 3.2031 1.1875 0.75781 0 1.4844-0.10938 2.1719-0.32812 0.6875-0.22656 1.3203-0.56641 1.9062-1.0156v4c-0.76172 0.28125-1.5391 0.48828-2.3281 0.625-0.78125 0.14453-1.5742 0.21875-2.375 0.21875-2.7617 0-4.9219-0.70703-6.4844-2.125-1.5547-1.4141-2.3281-3.3828-2.3281-5.9062 0-2.5312 0.77344-4.5039 2.3281-5.9219 1.5625-1.4141 3.7227-2.125 6.4844-2.125 0.80078 0 1.5938 0.074219 2.375 0.21875 0.78125 0.13672 1.5547 0.35156 2.3281 0.64062z"/>
  </symbol>
 </defs>
 <g>
  <path d="m556.53 277.26-3.0781-1.1758-0.28125-1.9609-6.3828-198.35 0.44922-0.72656c0.22266-0.39062 5.7109-9.2969 19.824-9.2969 14.113 0 17.305 6.4961 17.641 7.2227l0.22266 1.0078 6.7188 194.1c0 2.1289-0.50391 3.8086-1.5664 5.2656l-1.2305 1.625-1.9609-0.67188c-2.5742-0.89453-9.2969-3.0234-15.121-3.0234s-12.207 3.9766-14.113 5.207l-1.1758 0.78516zm-4.0898-199.92 6.1602 192.14c3.5273-1.8477 8.457-3.8086 13.215-3.8086 5.1523 0 10.641 1.3438 14.281 2.4648l-6.7188-193.2c-0.72656-0.89453-3.6953-3.5859-12.32-3.5859s-13.328 4.3672-14.617 5.9922z"/>
  <path d="m568.73 278.88h-1.457c-6.1055-0.22266-10.695-1.625-11.984-2.0703l-5.4883-1.8477 4.8711-3.1367c2.8008-1.8477 10.137-6.1055 17.137-6.1055s14.113 2.3516 16.969 3.3594l3.5859 1.2305-2.2383 3.0234c-0.67188 0.89453-1.5117 1.625-2.6328 2.2969-3.0781 1.8477-8.1211 2.8008-16.742 3.1914h-2.0156zm-4.4258-5.8789c1.0078 0.11328 2.0156 0.22266 3.1367 0.22266h3.0234c3.8633-0.16797 7-0.50391 9.4062-0.95312-2.5742-0.55859-5.375-1.0078-8.0625-1.0078-2.4648 0-5.1523 0.78516-7.5039 1.7344z"/>
  <path d="m488.77 494.26h-5.0391-8.457c-24.527-0.054687-30.742 0-41.832-9.8555-1.2891-1.1758-2.6328-2.3516-3.9766-3.7539l-3.9766-3.9766 5.543-0.78516c8.793-1.2305 17.527-2.6328 26.039-3.9219l2.0156-0.33594 1.0078 0.95312c1.2305 1.1758 2.6328 2.1289 4.1992 2.7422 7.6172 3.0781 49.559 5.207 60.535 0.054687 7.6172-3.5859 14.895-9.8008 21.617-18.426 1.2891-1.5117 2.4062-3.0234 3.4727-4.7031 8.6797-12.656 15.961-29.008 21.727-48.832 1.9609-6.832 4.0898-13.777 6.1055-20.441 1.3984-4.6484 2.7422-9.1289 3.9766-13.328 2.4062-8.3438 5.6562-20.047 5.6562-24.977 0-1.2891 0-3.6406 0.11328-6.6641 1.0625-48.105-1.1758-60.648-3.2461-62.719l-2.4648-2.4648 2.9102-1.9023c0.50391-0.33594 0.83984-0.61719 1.1211-0.95312 0.16797-0.22266 0.39062-0.67188 0.39062-1.8477l-2.0156-59.137 3.6953 1.0078c4.2578 1.1758 17.305 4.8164 17.078 119.22v1.9609c0 12.152-7.4492 32.648-19.711 66.695l-3.4727 9.6328c-14.168 39.426-17.414 45.695-42.055 67.031-21.391 18.535-28.336 19.77-50.793 19.77zm-11.312-5.6016h6.2734c18.145 0.054688 25.984 0.11328 36.23-6.1055-17.191 3.0781-50.23 1.0625-57.848-2.0156-1.7344-0.72656-3.4141-1.6797-4.8711-2.9102-6.4414 1.0078-13.047 2.0156-19.656 3.0234 9.1836 8.0625 14 8.0078 37.688 8.0078zm112.28-214.76c3.1914 7.3359 4.0898 26.434 3.2461 64.23-0.054687 3.0234-0.11328 5.3203-0.11328 6.5508 0 4.4258-1.7344 12.32-5.8789 26.543-1.2305 4.1992-2.5742 8.7344-3.9766 13.383-1.5117 5.0391-3.0781 10.246-4.6484 15.457l1.457-4.0312c12.098-33.434 19.375-53.648 19.375-64.793v-1.9609c0.16797-72.52-5.207-98.84-9.1289-108.41l1.625 47.207c0 2.1836-0.50391 3.8633-1.5117 5.3203-0.16797 0.16797-0.28125 0.33594-0.44922 0.50391z"/>
  <path d="m442.62 485.07h-7.3906c-2.9688 0-5.8789-0.28125-8.5664-0.78516-2.0703-0.39062-4.1445-0.89453-6.1055-1.625l-10.922-3.8086 22.734-3.2461 1.0078 0.95312c1.3438 1.2891 2.5742 2.4648 3.7539 3.5273l5.4883 4.8711z"/>
  <path d="m548.57 458.64c-8.625 11.09-16.801 16.52-22.625 19.266-11.762 5.543-54.879 3.1914-62.777 0-1.9023-0.78516-3.5859-1.9023-5.0391-3.3047 13.16-2.0703 25.594-4.1445 36.625-5.9922 4.0312 0.39062 8.5117 0.55859 13.609 0.55859 20.887 0 32.48-2.0156 40.207-10.527z"/>
  <path d="m497.73 484.06c-15.062 0-30.688-1.5664-35.617-3.5273-2.1836-0.89453-4.1992-2.1836-5.9375-3.8633l-4.0898-3.9219 5.6016-0.89453c13.16-2.0703 25.594-4.1445 36.625-5.9922h0.39062 0.39062c3.8086 0.39062 8.1758 0.55859 13.328 0.55859 22.008 0 31.586-2.4062 38.137-9.6328l4.2578 3.5859c-7.2812 9.3516-15.23 16.129-23.633 20.047-5.4883 2.5742-17.246 3.5859-29.398 3.5859zm-30.91-8.0078c11.816 2.6328 47.938 4.0312 57.961-0.67188 2.9688-1.3984 5.8789-3.1914 8.793-5.4336-6.832 1.5664-15.062 2.0156-25.145 2.0156-5.207 0-9.6328-0.16797-13.496-0.55859-8.625 1.457-18.09 3.0234-28.055 4.6484z"/>
  <path d="m590.07 344.62c0 4.6484-2.4062 14.168-5.7695 25.762 0.61719-7.8398 1.2305-22.512-2.0703-33.543v0.67188c-6.3828-16.688-32.535-16.07-32.535-16.07s-25.258-3.3594-37.129 1.0625c-0.22266 0.054688-0.44922 0.11328-0.67188 0.22266-0.78516 0.22266-1.3984 0.55859-1.8477 0.89453-13.16 7.7852-20.496 20.105-28.559 39.93-0.55859 1.3438-1.0625 2.6875-1.625 4.0898-7.3359 18.703-20.328 59.359-17.137 79.801-4.0898 0.72656-8.2305 1.3984-12.434 2.0703-0.16797-14.281 3.1914-33.32 9.7422-56.504 13.496-47.602 9.5195-48.383 46.816-91.223 37.297-42.84 48.832-37.969 48.832-37.969l0.33594 10.191s0.11328 0.054687 0.28125 0.11328c1.0078 0.33594 5.375 1.7344 11.145 1.9023 1.0625 0.054687 2.1289 0.054687 3.2461 0 8.2305-0.39062 12.879-1.2891 15.457-2.8008 6.3281 6.2734 3.9766 62.664 3.9766 71.398z"/>
  <path d="m447.5 452.82v-3.2461c-0.22266-14.281 3.0781-33.602 9.8008-57.289 1.9023-6.6641 3.4141-12.375 4.8164-17.414 8.3438-31.078 10.078-37.52 42.617-74.871 36.793-42.223 49.84-39.648 52.023-38.695l1.625 0.67188 0.33594 10.023c1.8477 0.50391 4.9844 1.1758 8.793 1.2891h3.0234c7.3359-0.33594 11.984-1.1211 14.168-2.4062l1.8477-1.0625 1.5117 1.5117c4.4805 4.4805 5.8789 23.184 4.9297 66.809-0.054687 3.0234-0.11328 5.3203-0.11328 6.5508 0 4.4258-1.7344 12.32-5.8789 26.543l-7.6172 26.32 2.1289-27.328c0.67188-8.5664 0.95313-20.441-1.2891-29.961l-0.67188-1.6797c-5.6016-14.672-29.625-14.281-29.848-14.281-0.67188-0.054687-25.145-3.2461-36.23 0.89453l-0.89453 0.28125c-0.44922 0.11328-0.78516 0.33594-0.95312 0.44922-13.16 7.7852-20.047 20.047-27.664 38.754l-1.625 4.0898c-7.2227 18.426-20.047 58.52-16.969 78.344l0.44922 2.6875-2.6875 0.50391c-4.0898 0.72656-8.2891 1.3984-12.488 2.0703l-3.1914 0.50391zm105.45-186.2c-4.1992 0.89453-17.137 6.1602-44.016 37.07-31.641 36.344-33.152 41.887-41.441 72.633-1.3438 5.0977-2.9102 10.809-4.8164 17.473-6.0469 21.449-9.2969 39.031-9.6328 52.473 2.1836-0.33594 4.3672-0.72656 6.4961-1.0625-1.8477-21.672 10.527-60.367 17.641-78.512l1.625-4.1445c7.8398-19.266 15.566-32.871 29.734-41.273 0.55859-0.44922 1.5117-0.89453 2.5195-1.1758 0 0 0.39062-0.16797 0.72656-0.22266 12.098-4.5352 37.129-1.2891 38.191-1.1211 0.55859 0 20.105-0.33594 30.297 10.695l0.72656-6.1055 3.8633 12.824c1.0625 3.5273 1.7344 7.3906 2.1289 11.312 0.16797-1.0625 0.22266-1.9609 0.22266-2.7422 0-1.2891 0-3.6406 0.11328-6.6641 0.89453-41.328-0.61719-56.449-2.4062-61.152-3.1367 1.1211-7.6172 1.7344-14.223 2.0156-1.1758 0.054688-2.3516 0.054688-3.5273 0-5.6562-0.16797-10.191-1.457-11.871-2.0156l-0.72656-0.33594-1.3984-0.78516-0.28125-9.1289z"/>
  <path d="m327.49 491.85c-58.969 0-197.79-17.863-215.66-22.289-10.754-2.6875-18.367-14.281-16.297-24.809 0.83984-4.2578 5.6016-17.809 30.855-14 72.688 11.312 127.73 17.473 178.59 19.824l1.8477 0.11328c4.0898 0.16797 8.0625 0.39062 11.984 0.50391h0.89453c3.1367 0.11328 6.3281 0.22266 9.4062 0.28125 7 0.22266 13.777 0.33594 20.551 0.44922h0.95312c11.258 0.16797 22.398 0.16797 33.824 0.16797h3.3047c2.5742 0 5.207 0 7.8398-0.11328 7.2812-0.16797 14.84-0.61719 23.238-1.3984 9.6875-0.89453 20.105-2.1836 30.969-3.8633 4.1992-0.67188 8.2891-1.3438 12.375-2.0703 44.574-7.8945 81.48-19.32 81.871-19.434 0.55859-0.22266 6.832-2.4062 11.648 0.95312 3.1367 2.1836 4.7031 5.9375 4.7031 11.258 0 12.602-7.6719 22.008-21.113 25.703-3.1367 0.78516-20.551 4.1445-44.07 8.1758-11.031 1.8477-23.465 3.9219-36.68 5.9922l-0.67188 0.11328c-8.5117 1.3438-17.305 2.6875-26.098 3.9219-3.3047 0.50391-6.6094 0.95312-9.9102 1.3984-25.816 3.6406-48.047 6.2148-66.023 7.6172-11.09 0.95312-20.664 1.3984-28.391 1.3984zm-209.05-56.168c-9.7422 0-16.07 3.5859-17.359 10.137-1.3438 6.832 3.3047 16.016 12.152 18.258 17.754 4.4258 155.68 22.176 214.31 22.176 7.6172 0 16.969-0.44922 27.945-1.3984 17.863-1.457 39.984-3.9766 65.688-7.6172 3.3047-0.44922 6.6094-0.89453 9.8555-1.3984 8.793-1.2305 17.586-2.6328 26.039-3.9219l0.67188-0.11328c13.16-2.0703 25.594-4.1445 36.566-5.9922 24.137-4.1445 40.938-7.3906 43.566-8.0625 6.2734-1.7344 16.91-6.7188 16.91-20.328 0-3.3594-0.78516-5.6016-2.2969-6.6641-2.0703-1.457-5.4883-0.67188-6.6641-0.22266-0.50391 0.16797-37.742 11.648-82.711 19.602-4.0898 0.72656-8.2891 1.3984-12.488 2.0703-10.977 1.6797-21.504 3.0234-31.305 3.8633-8.5117 0.78516-16.184 1.2305-23.52 1.3984-2.6875 0.11328-5.3203 0.11328-8.0078 0.11328h-3.3047c-11.48 0-22.625 0-33.879-0.16797h-1.0078c-6.7773-0.11328-13.609-0.22266-20.551-0.44922-3.0781 0-6.2734-0.16797-9.4648-0.22266h-0.89453c-3.9766-0.16797-7.9531-0.39062-12.098-0.55859l-1.8477-0.11328c-51.07-2.4062-106.29-8.5664-179.14-19.879-2.5742-0.39062-4.9297-0.55859-7.168-0.55859z"/>
  <path d="m297.7 213.81 0.89453-3.8633c10.641-46.367 36.512-84.281 74.762-109.76 21.336-14.223 46.09-23.91 71.566-28 18.426-2.9102 35.168 2.1836 49.617 15.344l6.0469 5.4883-8.1211-0.61719s-26.266-1.9609-41.887 0c-64.734 11.145-92.793 48.105-93.07 48.441-10.023 9.2383-18.762 21.336-26.375 36.457-8.6797 17.246-12.77 32.258-12.824 32.367l-0.50391 1.8477-20.105 2.2383zm157.08-136.81c-2.9102 0-5.9375 0.22266-8.9609 0.72656-24.695 3.9766-48.664 13.328-69.328 27.105-35.953 23.91-60.648 59.305-71.457 102.48l8.457-0.95312c1.3984-4.6484 5.4336-17.246 12.711-31.586 7.9531-15.734 17.137-28.449 27.273-37.688 0.78516-1.1758 29.176-38.695 96.375-50.289 10.527-1.2891 25.031-0.95312 34.273-0.55859-8.9609-6.2148-18.762-9.2969-29.23-9.2969z"/>
  <path d="m343.62 262.81c-0.89453 0-1.8477 0-2.8008-0.11328-7.3359-0.39062-16.352-2.2969-24.246-4.0312l-0.78516-0.16797c-16.742-3.6953-18.871-34.719-17.246-48.273l0.28125-2.1836 16.52-1.8477 18.648 0.78516 23.184 4.9844 19.32 8.2891-1.2305 2.6328c-2.5742 5.543-15.68 33.434-21.559 37.574-2.2383 1.625-5.4883 2.3516-10.078 2.3516zm-25.871-9.5742c8.2305 1.793 16.801 3.5273 23.352 3.9219 5.8242 0.33594 8.2891-0.50391 9.3516-1.2305 3.1914-2.2969 12.32-19.711 18.48-32.762l-13.719-5.8789-22.008-4.7031-17.754-0.72656-11.594 1.2891c-1.0625 14.113 2.1289 37.52 13.105 39.984l0.16797 2.9102 0.61719-2.7422z"/>
  <path d="m344.57 215.04-11.367-2.5195-21.223-0.89453 0.89453-3.3594c0.16797-0.61719 4.2578-15.68 13.215-33.488l0.78516-1.5664h1.793c4.9844 0.16797 13.551 1.0078 15.625 5.1523l0.28125 0.55859v36.121zm-25.258-8.6797 14.672 0.61719 5.0391 1.0625v-27.383c-1.2891-0.72656-4.8711-1.457-8.6797-1.7344-5.7695 11.703-9.4062 22.23-11.031 27.383z"/>
  <path d="m375.09 225.73-19.879-8.5117-10.641-2.1289 0.89453-2.9688c2.4648-8.1758 19.375-37.465 20.105-38.695l1.3438-2.3516 2.4062 1.2305c0.61719 0.33594 14.895 7.6719 23.184-1.6797l4.3125 3.5273c-18.594 24.586-21.223 47.488-21.281 47.711l-0.39062 3.7539zm-23.184-14.895 5.2656 1.1211 13.383 5.7109c1.2891-6.4961 4.9844-20.719 15.062-37.016-6.5508 1.2305-13.047-0.83984-16.465-2.2383-4.7617 8.3438-13.777 24.527-17.191 32.367z"/>
  <path d="m512.01 114.07c-1.457 4.5352-3.8086 9.6328-6.7773 10.023-5.543 0.78516-55.551-3.1914-92.008 28.559-7.5039 6.4961-13.609 13.273-18.648 19.879-9.9102 11.199-26.602 2.2969-26.602 2.2969s-19.824-4.7617-21.559-7.7852c-1.7344-3.0234 1.7344-16.016 1.7344-16.016l7.1133-11.871s28.113-38.023 94.977-49.559c16.07-2.0156 42.449 0 42.449 0 7.6172 6.8867 14 15.512 19.32 24.473z"/>
  <path d="m381.36 180.99c-6.832 0-12.824-2.7422-14.336-3.4727-13.719-3.3047-21.504-6.3281-23.016-9.0156-1.9609-3.4727 0-12.879 1.457-18.145l0.28125-0.72656 7.168-11.871c1.3438-1.793 29.68-39.312 96.879-50.902 16.297-2.0156 42-0.11328 43.121 0h0.95313s0.72656 0.72656 0.72656 0.72656c7.0547 6.3828 13.719 14.785 19.824 25.09l0.67188 1.1211-0.39062 1.2305c-2.4648 7.6172-5.375 11.426-9.0703 11.93-0.78516 0.11328-2.4062 0.16797-4.7031 0.16797-13.609 0.22266-54.938 0.83984-85.902 27.719-6.7773 5.8789-12.938 12.434-18.258 19.488-4.5938 5.207-10.246 6.7773-15.457 6.7773zm-30.633-28.84c-1.5117 5.9375-2.4062 12.266-1.8477 13.609 1.2891 1.1758 11.312 4.3672 19.711 6.3828l0.67188 0.22266c0.61719 0.33594 14.895 7.6719 23.184-1.6797 5.375-7.168 11.816-14 18.871-20.16 32.48-28.223 75.375-28.895 89.488-29.062 1.9609 0 3.3047 0 3.9766-0.11328 0 0 1.793-0.44922 4.0898-6.9453-5.4336-8.9609-11.312-16.352-17.414-22.062-4.8711-0.33594-26.992-1.6797-40.938 0-64.734 11.145-92.793 48.105-93.07 48.441l-6.7773 11.312z"/>
  <path d="m551.15 179.14c-3.3594 0-9.9688-1.1758-16.352-8.793-1.9023-2.2383-3.8633-7.3906-6.8867-15.121-4.1992-10.863-10.023-25.703-18.312-39.703-5.8242-9.8008-12.152-17.809-18.816-23.801-13.16-11.93-28.281-16.688-44.969-13.945-24.695 3.9766-48.664 13.328-69.328 27.105l-3.3047-4.4805c1.5664-1.2891 38.922-31.414 94.809-31.414 21.785 0 41.887 6.2734 59.695 18.535 16.855 11.648 25.199 24.359 25.594 24.922l0.44922 0.67188 2.1289 65.352-2.2383 0.50391s-0.95312 0.22266-2.2969 0.22266zm-77.336-104.44c7.3359 2.6875 14.223 6.9453 20.719 12.824 7.0547 6.3828 13.719 14.785 19.824 25.09 8.5664 14.391 14.449 29.512 18.703 40.543 2.5195 6.4414 4.6484 12.039 5.9922 13.551 4.2578 5.1523 8.3984 6.4414 10.863 6.7773l-1.9023-58.633c-1.8477-2.6328-9.8008-13.16-23.633-22.734-15.23-10.527-32.258-16.352-50.625-17.414z"/>
  <path d="m553.95 123.87-5.4883-8.3984s-8.1758-12.375-24.078-23.352l-8.8477-6.1055 10.695 1.0078c0.67188 0.054687 17.191 1.6797 25.762 8.625l1.0078 0.78516 0.89453 27.441zm-16.969-29.121c4.5938 3.9219 8.1758 7.6719 10.809 10.695l-0.22266-6.2148c-2.9688-2.0156-6.8867-3.4727-10.586-4.5352z"/>
  <path d="m590.07 185.14h-0.22266c-2.6875-0.16797-5.207-3.0234-6.2148-4.2578l-0.55859-0.72656-2.5195-72.633 5.8789 13.609c8.457 19.602 9.9102 59.414 6.4414 62.832-0.72656 0.72656-1.7344 1.1758-2.8008 1.1758zm-1.457-7.0547s0.11328 0.11328 0.16797 0.22266c0.39062-5.0391 0.28125-16.297-1.1758-28.168l0.95312 27.945z"/>
  <path d="m323.34 456.9-4.6484-0.16797c-4.5938-0.16797-9.1836-0.33594-13.945-0.55859h-1.5117l-0.78516-1.3438c-1.457-2.4648-2.8555-5.1523-4.1445-7.8945-22.062-48.383-24.414-81.535-24.414-93.52 0-9.6328 14.785-70 32.703-77.168 4.6484-2.0156 6.6094-0.89453 8.7344 0.78516 0.72656 0.55859 1.457 1.1211 2.6875 1.5664 0 0 10.078 2.5195 22.961 2.8008l10.078 0.16797-8.7344 5.0391s-5.1523 3.0234-11.48 8.3984l-0.67188 0.44922c-10.754 4.8164-17.527 11.48-28.953 28.617-6.5508 9.8008-8.2305 15.625-5.6016 30.91v0.78516c-0.054688 0.95312-2.1836 23.91 10.359 58.801 7.8398 21.895 12.656 32.871 15.289 38.246l2.0703 4.1992zm-16.801-6.2734c2.5742 0.11328 5.207 0.22266 7.7266 0.33594-2.9102-6.3828-7.2812-17.078-13.551-34.609-12.266-34.105-10.922-57.566-10.641-60.93-2.6328-15.512-1.1758-23.016 6.5508-34.609 10.586-15.902 17.977-24.586 30.969-30.465 1.793-1.5117 3.4727-2.8555 4.9844-3.9766-9.2969-0.83984-15.734-2.4648-16.07-2.5742-2.3516-0.78516-3.6406-1.793-4.5938-2.5195-1.0625-0.83984-1.1211-0.89453-3.1367 0-13.887 5.543-29.23 62.047-29.23 72.016 0 11.648 2.3516 43.848 23.91 91.223 0.95312 2.1289 2.0156 4.1445 3.0781 6.1055z"/>
  <path d="m389.59 493.53c-10.023 0-22.062-0.44922-34.496-3.1367l-18.648-3.9766 19.039-1.5117c17.809-1.457 39.871-3.9766 65.633-7.6172l0.67188-0.11328 0.61719 0.22266c1.6797 0.61719 3.4727 1.0625 5.2656 1.3984l2.6875 0.50391-0.39062 2.6875c-0.16797 1.1758-2.4062 11.48-27.105 11.48h-5.4883c-2.4062 0-5.0391 0.054687-7.7852 0.054687zm-7-5.7109c5.375 0.16797 10.359 0.054688 14.672 0h5.543c11.984 0 17.359-2.5195 19.77-4.4805-0.44922-0.11328-0.95312-0.28125-1.3984-0.44922-14 1.9609-26.879 3.5859-38.586 4.9297z"/>
  <path d="m343.79 286.95h-2.8555c-13.664-0.33594-24.023-2.9688-24.473-3.0781l-2.1289-0.55859v-30.855l3.4141 0.72656c8.2305 1.793 16.801 3.5273 23.352 3.9219l2.6328 0.16797v29.68zm-23.801-8.0078c3.2461 0.67188 9.9688 1.9023 18.199 2.2383v-18.648c-5.7109-0.55859-12.152-1.793-18.199-3.0781z"/>
  <path d="m416.75 456.4-0.39062-2.6328c-5.2656-34.887 8.457-96.879 29.344-132.78 13.383-22.961 34.945-50.008 50.68-68.656l2.4062-2.8008c16.969-19.938 31.977-35.895 36.176-40.152 8.9609-8.9609 19.039-6.6094 19.488-6.4961l2.0703 0.50391 2.0703 64.68-3.8633-1.625c-1.0078-0.11328-12.938-0.61719-45.863 37.184-31.641 36.344-33.152 41.887-41.441 72.688-1.3438 5.0977-2.9102 10.809-4.8164 17.473-6.6094 23.238-9.8008 41.945-9.6328 55.664v2.4062s-2.3516 0.39062-2.3516 0.39062c-10.922 1.6797-21.449 3.0234-31.305 3.9219l-2.6328 0.22266zm134.06-248.3c-2.7422 0-7.4492 0.78516-11.93 5.207-4.1992 4.1992-19.039 19.992-35.895 39.816l-2.4062 2.8008c-22.398 26.488-39.703 49.953-50.121 67.871-19.824 34.105-33.039 92.289-28.953 126.5 8.2305-0.78516 16.91-1.9023 25.93-3.2461 0.16797-13.945 3.4727-32.367 9.8555-54.824 1.9023-6.6094 3.4141-12.375 4.7617-17.414 8.3438-31.078 10.078-37.574 42.617-74.871 27.496-31.586 41.719-38.078 48.105-38.977l-1.6797-52.863h-0.22266z"/>
  <path d="m500.92 251.33c-0.78516 0.95312-1.5664 1.8477-2.4062 2.8008 0 0-23.465-5.4883-52.809 30.969-29.344 36.457-44.016 90.496-48.16 109.87-4.1992 19.434-8.1211 48.777-2.5742 58.297 0.28125 0.44922 0.55859 0.95312 0.83984 1.457-2.6875 0.054688-5.3203 0.11328-8.0078 0.11328h-3.3047c-4.0312-8.625-8.0625-23.52-7.5039-48.16 0.11328-4.8164 0.50391-9.8008 1.1211-14.84 3.5273-28.223 14.281-59.191 22.008-78.68 4.7617-12.039 8.3438-19.711 8.3438-19.711s37.352-61.656 92.398-42.113z"/>
  <path d="m387.8 457.74h-5.0977l-0.72656-1.625c-3.8633-8.2305-8.3438-23.52-7.7266-49.449 0.11328-4.7617 0.50391-9.8555 1.1758-15.121 3.5273-28.113 14-58.688 22.176-79.352 4.7617-11.984 8.3984-19.824 8.3984-19.879 0.50391-0.89453 39.312-63.672 95.871-43.566l3.8633 1.3438-6.1602 7.2227-1.6797-0.39062s-22.289-4.4258-50.008 30.016c-31.527 39.199-45.191 97.441-47.602 108.75-4.6484 21.559-7.5039 48.383-2.9102 56.281l3.1367 5.543-4.5938 0.11328c-2.6875 0.054688-5.375 0.11328-8.0625 0.11328zm-1.5117-5.6016h1.5117 3.5859c-5.2656-15.398 1.8477-50.344 3.4141-57.625 2.4648-11.48 16.406-70.895 48.719-111.05 19.656-24.414 36.902-30.688 46.816-32.031-47.098-8.8477-79.016 42.84-79.465 43.566 0 0-3.5273 7.6172-8.1211 19.32-8.0625 20.383-18.426 50.512-21.84 78.008-0.61719 5.0391-1.0078 9.9688-1.1211 14.559-0.50391 23.184 3.0781 37.297 6.4961 45.305z"/>
  <path d="m408.46 293.5s-3.5859 7.6719-8.3438 19.711c-4.6484-0.44922-29.566-2.3516-37.969 7.6719-8.9609 10.641 9.4062 65.406 15.961 71.008-0.61719 5.0391-1.0078 10.023-1.1211 14.84-0.55859 24.695 3.4727 39.535 7.5039 48.16-11.426 0-22.566 0-33.824-0.16797-3.3594-2.6875-6.6094-5.8789-9.6328-9.7422-15.848-20.273-43.625-86.855-36.512-115.41 4.0898-16.465 15.566-29.008 24.586-36.734 6.6094-5.6562 11.871-8.7344 11.871-8.7344s3.9766-2.9102 13.496-2.9102 45.359 5.543 53.984 12.32z"/>
  <path d="m388.86 457.74h-4.4258c-11.426 0-22.625 0-33.824-0.16797h-0.95312l-0.72656-0.61719c-3.7539-2.9688-7.1133-6.3828-10.137-10.191-17.023-21.727-44.352-88.535-37.016-117.82 4.3125-17.191 16.238-30.297 25.48-38.191 6.7188-5.7695 12.098-8.9023 12.32-9.0156 0.22266-0.16797 4.7617-3.3047 14.895-3.3047 9.1836 0 46.199 5.4883 55.719 12.879l1.793 1.3984-0.95312 2.0156s-3.6406 7.7266-8.2891 19.543l-0.78516 1.9609-2.1289-0.22266c-12.77-1.2305-29.734-0.22266-35.559 6.7188-2.3516 2.8008-3.0781 13.609 2.7422 34.832 4.6484 17.137 10.641 30.297 12.879 32.199l1.1211 0.95312-0.16797 1.5117c-0.61719 5.0391-1.0078 9.9688-1.1211 14.559-0.55859 24.863 3.6406 39.258 7.2227 46.93l1.8477 3.9766zm-37.238-5.7695c9.5195 0.11328 18.984 0.16797 28.617 0.16797-3.3594-8.8477-6.5508-23.238-6.0469-45.473 0.11328-4.4258 0.44922-9.0703 1.0078-13.887-7.7852-10.191-25.145-61.824-15.176-73.695 8.2891-9.9102 29.344-9.5195 38.246-8.8477 2.9102-7.2812 5.3203-12.824 6.6094-15.734-10.246-5.543-40.992-10.527-50.457-10.527-8.2891 0-11.816 2.3516-11.871 2.4062-0.28125 0.16797-5.375 3.1367-11.703 8.5664-8.625 7.3906-19.77 19.543-23.688 35.281-6.832 27.328 19.938 92.566 35.953 113.01 2.5195 3.1914 5.375 6.1055 8.457 8.6797z"/>
  <path d="m380.24 397.38-3.9766-3.3594c-7.0547-6.0469-26.77-62.441-16.238-74.93 9.0156-10.754 33.152-9.3516 40.375-8.6797l3.6953 0.33594-1.3438 3.4727c-8.0625 20.383-18.426 50.512-21.84 78.008zm10.359-81.871c-10.695 0-21.84 1.8477-26.32 7.168-2.3516 2.8008-3.0781 13.609 2.7422 34.832 3.0234 11.145 6.6641 20.609 9.4062 26.434 4.0312-24.305 12.488-49.672 19.711-68.266-1.793-0.11328-3.6406-0.16797-5.543-0.16797z"/>
  <path d="m358.73 457.63-8.1758-0.11328c-7.1133-0.11328-14.281-0.22266-21.617-0.44922h-1.1758s-0.78516-0.89453-0.78516-0.89453c-0.72656-0.78516-18.145-19.543-28.895-64.566l-1.3438-5.6562c-3.1367-13.105-5.375-22.566-6.7188-30.129-2.6875-15.734-1.2891-23.297 6.4961-34.945 10.695-16.07 18.145-24.754 31.359-30.633l17.527-7.7852-14.559 12.488c-8.625 7.3906-19.77 19.543-23.688 35.281-6.832 27.328 19.938 92.566 35.953 113.01 2.6875 3.4727 5.8242 6.6094 9.1836 9.2969l6.3828 5.0977zm-28.336-6.1055c4.3125 0.11328 8.625 0.22266 12.879 0.28125-1.5664-1.625-3.0781-3.3047-4.4805-5.0977-17.023-21.727-44.352-88.535-37.016-117.82 1.0625-4.3672 2.6328-8.3984 4.5352-12.207-1.5664 2.1836-3.2461 4.6484-5.0391 7.3359-6.5508 9.8008-8.2305 15.625-5.6016 30.91 1.2891 7.3906 3.5273 16.801 6.6094 29.848l1.3438 5.6562c9.1289 38.246 23.406 57.121 26.77 61.152z"/>
  <use x="70" y="644" xlink:href="#u"/>
  <use x="90.550781" y="644" xlink:href="#b"/>
  <use x="104.359375" y="644" xlink:href="#a"/>
  <use x="123.347656" y="644" xlink:href="#f"/>
  <use x="142.242188" y="644" xlink:href="#d"/>
  <use x="155.628906" y="644" xlink:href="#a"/>
  <use x="174.617188" y="644" xlink:href="#j"/>
  <use x="204.410156" y="644" xlink:href="#i"/>
  <use x="224.453125" y="644" xlink:href="#c"/>
  <use x="252.453125" y="644" xlink:href="#h"/>
  <use x="274.011719" y="644" xlink:href="#c"/>
  <use x="292.265625" y="644" xlink:href="#f"/>
  <use x="311.15625" y="644" xlink:href="#g"/>
  <use x="340.839844" y="644" xlink:href="#t"/>
  <use x="364.082031" y="644" xlink:href="#s"/>
  <use x="389.949219" y="644" xlink:href="#c"/>
  <use x="408.203125" y="644" xlink:href="#a"/>
  <use x="427.191406" y="644" xlink:href="#b"/>
  <use x="70" y="672" xlink:href="#r"/>
  <use x="82.183594" y="672" xlink:href="#b"/>
  <use x="95.992188" y="672" xlink:href="#e"/>
  <use x="115.226562" y="672" xlink:href="#q"/>
  <use x="154.152344" y="672" xlink:href="#d"/>
  <use x="167.535156" y="672" xlink:href="#p"/>
  <use x="187.46875" y="672" xlink:href="#a"/>
  <use x="216.207031" y="672" xlink:href="#o"/>
  <use x="239.640625" y="672" xlink:href="#e"/>
  <use x="258.878906" y="672" xlink:href="#n"/>
  <use x="278.8125" y="672" xlink:href="#g"/>
  <use x="308.492188" y="672" xlink:href="#m"/>
  <use x="329.015625" y="672" xlink:href="#b"/>
  <use x="342.820312" y="672" xlink:href="#e"/>
  <use x="362.058594" y="672" xlink:href="#l"/>
  <use x="371.65625" y="672" xlink:href="#a"/>
  <use x="390.648438" y="672" xlink:href="#k"/>
  <use x="407.242188" y="672" xlink:href="#d"/>
 </g>
</svg>
