<?xml version="1.0" encoding="UTF-8"?>
<svg width="700pt" height="700pt" version="1.1" viewBox="0 0 700 700" xmlns="http://www.w3.org/2000/svg" xmlns:xlink="http://www.w3.org/1999/xlink">
 <defs>
  <symbol id="u" overflow="visible">
   <path d="m18.766-1.125c-0.96875 0.5-1.9805 0.875-3.0312 1.125-1.043 0.25781-2.1367 0.39062-3.2812 0.39062-3.3984 0-6.0898-0.94531-8.0781-2.8438-1.9922-1.9062-2.9844-4.4844-2.9844-7.7344 0-3.2578 0.99219-5.8359 2.9844-7.7344 1.9883-1.9062 4.6797-2.8594 8.0781-2.8594 1.1445 0 2.2383 0.13281 3.2812 0.39062 1.0508 0.25 2.0625 0.625 3.0312 1.125v4.2188c-0.98047-0.65625-1.9453-1.1406-2.8906-1.4531-0.94922-0.3125-1.9492-0.46875-3-0.46875-1.875 0-3.3516 0.60547-4.4219 1.8125-1.0742 1.1992-1.6094 2.8555-1.6094 4.9688 0 2.1055 0.53516 3.7617 1.6094 4.9688 1.0703 1.1992 2.5469 1.7969 4.4219 1.7969 1.0508 0 2.0508-0.14844 3-0.45312 0.94531-0.3125 1.9102-0.80078 2.8906-1.4688z"/>
  </symbol>
  <symbol id="b" overflow="visible">
   <path d="m13.734-11.141c-0.4375-0.19531-0.87109-0.34375-1.2969-0.4375-0.41797-0.10156-0.83984-0.15625-1.2656-0.15625-1.2617 0-2.2305 0.40625-2.9062 1.2188-0.67969 0.80469-1.0156 1.9531-1.0156 3.4531v7.0625h-4.8906v-15.312h4.8906v2.5156c0.625-1 1.3438-1.7266 2.1562-2.1875 0.82031-0.46875 1.8008-0.70312 2.9375-0.70312 0.16406 0 0.34375 0.011719 0.53125 0.03125 0.19531 0.011719 0.47656 0.039062 0.84375 0.078125z"/>
  </symbol>
  <symbol id="a" overflow="visible">
   <path d="m17.641-7.7031v1.4062h-11.453c0.125 1.1484 0.53906 2.0078 1.25 2.5781 0.70703 0.57422 1.7031 0.85938 2.9844 0.85938 1.0312 0 2.082-0.14844 3.1562-0.45312 1.082-0.3125 2.1914-0.77344 3.3281-1.3906v3.7656c-1.1562 0.4375-2.3125 0.76562-3.4688 0.98438-1.1562 0.22656-2.3125 0.34375-3.4688 0.34375-2.7734 0-4.9297-0.70312-6.4688-2.1094-1.5312-1.4062-2.2969-3.3789-2.2969-5.9219 0-2.5 0.75391-4.4609 2.2656-5.8906 1.5078-1.4375 3.582-2.1562 6.2188-2.1562 2.4062 0 4.332 0.73047 5.7812 2.1875 1.4453 1.4492 2.1719 3.3828 2.1719 5.7969zm-5.0312-1.625c0-0.92578-0.27344-1.6719-0.8125-2.2344-0.54297-0.57031-1.25-0.85938-2.125-0.85938-0.94922 0-1.7188 0.26562-2.3125 0.79688s-0.96484 1.2969-1.1094 2.2969z"/>
  </symbol>
  <symbol id="f" overflow="visible">
   <path d="m9.2188-6.8906c-1.0234 0-1.793 0.17188-2.3125 0.51562-0.51172 0.34375-0.76562 0.85547-0.76562 1.5312 0 0.625 0.20703 1.1172 0.625 1.4688 0.41406 0.34375 0.98828 0.51562 1.7188 0.51562 0.92578 0 1.7031-0.32812 2.3281-0.98438 0.63281-0.66406 0.95312-1.4922 0.95312-2.4844v-0.5625zm7.4688-1.8438v8.7344h-4.9219v-2.2656c-0.65625 0.92969-1.3984 1.6055-2.2188 2.0312-0.82422 0.41406-1.8242 0.625-3 0.625-1.5859 0-2.8711-0.45703-3.8594-1.375-0.99219-0.92578-1.4844-2.1289-1.4844-3.6094 0-1.7891 0.61328-3.1016 1.8438-3.9375 1.2383-0.84375 3.1797-1.2656 5.8281-1.2656h2.8906v-0.39062c0-0.76953-0.30859-1.332-0.92188-1.6875-0.61719-0.36328-1.5703-0.54688-2.8594-0.54688-1.0547 0-2.0312 0.10547-2.9375 0.3125-0.89844 0.21094-1.7305 0.52344-2.5 0.9375v-3.7344c1.0391-0.25 2.0859-0.44141 3.1406-0.57812 1.0625-0.13281 2.125-0.20312 3.1875-0.20312 2.7578 0 4.75 0.54688 5.9688 1.6406 1.2266 1.0859 1.8438 2.8555 1.8438 5.3125z"/>
  </symbol>
  <symbol id="d" overflow="visible">
   <path d="m7.7031-19.656v4.3438h5.0469v3.5h-5.0469v6.5c0 0.71094 0.14062 1.1875 0.42188 1.4375s0.83594 0.375 1.6719 0.375h2.5156v3.5h-4.1875c-1.9375 0-3.3125-0.39844-4.125-1.2031-0.80469-0.8125-1.2031-2.1797-1.2031-4.1094v-6.5h-2.4219v-3.5h2.4219v-4.3438z"/>
  </symbol>
  <symbol id="j" overflow="visible">
   <path d="m12.766-13.078v-8.2031h4.9219v21.281h-4.9219v-2.2188c-0.66797 0.90625-1.4062 1.5703-2.2188 1.9844s-1.7578 0.625-2.8281 0.625c-1.8867 0-3.4336-0.75-4.6406-2.25-1.2109-1.5-1.8125-3.4258-1.8125-5.7812 0-2.3633 0.60156-4.2969 1.8125-5.7969 1.207-1.5 2.7539-2.25 4.6406-2.25 1.0625 0 2 0.21484 2.8125 0.64062 0.82031 0.42969 1.5664 1.0859 2.2344 1.9688zm-3.2188 9.9219c1.0391 0 1.8359-0.37891 2.3906-1.1406 0.55078-0.76953 0.82812-1.8828 0.82812-3.3438 0-1.457-0.27734-2.5664-0.82812-3.3281-0.55469-0.76953-1.3516-1.1562-2.3906-1.1562-1.043 0-1.8398 0.38672-2.3906 1.1562-0.55469 0.76172-0.82812 1.8711-0.82812 3.3281 0 1.4609 0.27344 2.5742 0.82812 3.3438 0.55078 0.76172 1.3477 1.1406 2.3906 1.1406z"/>
  </symbol>
  <symbol id="i" overflow="visible">
   <path d="m10.5-3.1562c1.0508 0 1.8516-0.37891 2.4062-1.1406 0.55078-0.76953 0.82812-1.8828 0.82812-3.3438 0-1.457-0.27734-2.5664-0.82812-3.3281-0.55469-0.76953-1.3555-1.1562-2.4062-1.1562-1.0547 0-1.8594 0.38672-2.4219 1.1562-0.55469 0.77344-0.82812 1.8828-0.82812 3.3281 0 1.4492 0.27344 2.5586 0.82812 3.3281 0.5625 0.77344 1.3672 1.1562 2.4219 1.1562zm-3.25-9.9219c0.67578-0.88281 1.4219-1.5391 2.2344-1.9688 0.82031-0.42578 1.7656-0.64062 2.8281-0.64062 1.8945 0 3.4453 0.75 4.6562 2.25 1.207 1.5 1.8125 3.4336 1.8125 5.7969 0 2.3555-0.60547 4.2812-1.8125 5.7812-1.2109 1.5-2.7617 2.25-4.6562 2.25-1.0625 0-2.0078-0.21094-2.8281-0.625-0.8125-0.42578-1.5586-1.0859-2.2344-1.9844v2.2188h-4.8906v-21.281h4.8906z"/>
  </symbol>
  <symbol id="c" overflow="visible">
   <path d="m0.34375-15.312h4.8906l4.125 10.391 3.5-10.391h4.8906l-6.4375 16.766c-0.64844 1.6953-1.4023 2.8828-2.2656 3.5625-0.86719 0.6875-2 1.0312-3.4062 1.0312h-2.8438v-3.2188h1.5312c0.83203 0 1.4375-0.13672 1.8125-0.40625 0.38281-0.26172 0.67969-0.73047 0.89062-1.4062l0.14062-0.42188z"/>
  </symbol>
  <symbol id="h" overflow="visible">
   <path d="m10.047-11.359c1.1016 0 1.8945-0.20312 2.375-0.60938 0.47656-0.41406 0.71875-1.0938 0.71875-2.0312 0-0.92578-0.24219-1.5859-0.71875-1.9844-0.48047-0.40625-1.2734-0.60938-2.375-0.60938h-2.2188v5.2344zm-2.2188 3.6406v7.7188h-5.25v-20.406h8.0312c2.6875 0 4.6562 0.45312 5.9062 1.3594 1.2578 0.89844 1.8906 2.3203 1.8906 4.2656 0 1.3555-0.32812 2.4648-0.98438 3.3281-0.64844 0.86719-1.625 1.5-2.9375 1.9062 0.71875 0.16797 1.3594 0.54297 1.9219 1.125 0.57031 0.57422 1.1484 1.4492 1.7344 2.625l2.8594 5.7969h-5.6094l-2.4844-5.0781c-0.5-1.0195-1.0117-1.7109-1.5312-2.0781-0.51172-0.375-1.1953-0.5625-2.0469-0.5625z"/>
  </symbol>
  <symbol id="g" overflow="visible">
   <path d="m17.75-9.3281v9.3281h-4.9219v-7.1406c0-1.3203-0.03125-2.2344-0.09375-2.7344s-0.16797-0.86719-0.3125-1.1094c-0.1875-0.3125-0.44922-0.55469-0.78125-0.73438-0.32422-0.17578-0.69531-0.26562-1.1094-0.26562-1.0234 0-1.8242 0.39844-2.4062 1.1875-0.58594 0.78125-0.875 1.8711-0.875 3.2656v7.5312h-4.8906v-15.312h4.8906v2.2344c0.73828-0.88281 1.5195-1.5391 2.3438-1.9688 0.83203-0.42578 1.75-0.64062 2.75-0.64062 1.7695 0 3.1133 0.54688 4.0312 1.6406 0.91406 1.0859 1.375 2.6562 1.375 4.7188z"/>
  </symbol>
  <symbol id="t" overflow="visible">
   <path d="m7.8281-16.438v12.453h1.8906c2.1562 0 3.8008-0.53125 4.9375-1.5938 1.1328-1.0625 1.7031-2.6133 1.7031-4.6562 0-2.0195-0.57031-3.5547-1.7031-4.6094-1.125-1.0625-2.7734-1.5938-4.9375-1.5938zm-5.25-3.9688h5.5469c3.0938 0 5.3984 0.21875 6.9219 0.65625 1.5195 0.4375 2.8203 1.1875 3.9062 2.25 0.95703 0.91797 1.6641 1.9805 2.125 3.1875 0.46875 1.1992 0.70312 2.5586 0.70312 4.0781 0 1.543-0.23438 2.918-0.70312 4.125-0.46094 1.2109-1.168 2.2773-2.125 3.2031-1.0938 1.0547-2.4062 1.8047-3.9375 2.25-1.5312 0.4375-3.8281 0.65625-6.8906 0.65625h-5.5469z"/>
  </symbol>
  <symbol id="s" overflow="visible">
   <path d="m0.98438-15.312h4.7656l2.5625 10.547 2.5781-10.547h4.0938l2.5781 10.438 2.5781-10.438h4.75l-4.0312 15.312h-5.3438l-2.5781-10.531-2.5781 10.531h-5.3438z"/>
  </symbol>
  <symbol id="r" overflow="visible">
   <path d="m12.422-21.281v3.2188h-2.7031c-0.6875 0-1.1719 0.125-1.4531 0.375-0.27344 0.25-0.40625 0.6875-0.40625 1.3125v1.0625h4.1875v3.5h-4.1875v11.812h-4.8906v-11.812h-2.4375v-3.5h2.4375v-1.0625c0-1.6641 0.46094-2.8984 1.3906-3.7031 0.92578-0.80078 2.3672-1.2031 4.3281-1.2031z"/>
  </symbol>
  <symbol id="e" overflow="visible">
   <path d="m9.6406-12.188c-1.0859 0-1.9141 0.39062-2.4844 1.1719-0.57422 0.78125-0.85938 1.9062-0.85938 3.375s0.28516 2.5938 0.85938 3.375c0.57031 0.77344 1.3984 1.1562 2.4844 1.1562 1.0625 0 1.875-0.38281 2.4375-1.1562 0.57031-0.78125 0.85938-1.9062 0.85938-3.375s-0.28906-2.5938-0.85938-3.375c-0.5625-0.78125-1.375-1.1719-2.4375-1.1719zm0-3.5c2.6328 0 4.6914 0.71484 6.1719 2.1406 1.4766 1.418 2.2188 3.3867 2.2188 5.9062 0 2.5117-0.74219 4.4805-2.2188 5.9062-1.4805 1.418-3.5391 2.125-6.1719 2.125-2.6484 0-4.7148-0.70703-6.2031-2.125-1.4922-1.4258-2.2344-3.3945-2.2344-5.9062 0-2.5195 0.74219-4.4883 2.2344-5.9062 1.4883-1.4258 3.5547-2.1406 6.2031-2.1406z"/>
  </symbol>
  <symbol id="q" overflow="visible">
   <path d="m16.547-12.766c0.61328-0.94531 1.3477-1.6719 2.2031-2.1719 0.85156-0.5 1.7891-0.75 2.8125-0.75 1.7578 0 3.0977 0.54688 4.0156 1.6406 0.92578 1.0859 1.3906 2.6562 1.3906 4.7188v9.3281h-4.9219v-7.9844-0.35938c0.007813-0.13281 0.015625-0.32031 0.015625-0.5625 0-1.082-0.16406-1.8633-0.48438-2.3438-0.3125-0.48828-0.82422-0.73438-1.5312-0.73438-0.92969 0-1.6484 0.38672-2.1562 1.1562-0.51172 0.76172-0.77344 1.8672-0.78125 3.3125v7.5156h-4.9219v-7.9844c0-1.6953-0.14844-2.7852-0.4375-3.2656-0.29297-0.48828-0.8125-0.73438-1.5625-0.73438-0.9375 0-1.6641 0.38672-2.1719 1.1562-0.51172 0.76172-0.76562 1.8594-0.76562 3.2969v7.5312h-4.9219v-15.312h4.9219v2.2344c0.60156-0.86328 1.2891-1.5156 2.0625-1.9531 0.78125-0.4375 1.6406-0.65625 2.5781-0.65625 1.0625 0 2 0.25781 2.8125 0.76562 0.8125 0.51172 1.4258 1.2305 1.8438 2.1562z"/>
  </symbol>
  <symbol id="p" overflow="visible">
   <path d="m17.75-9.3281v9.3281h-4.9219v-7.1094c0-1.3438-0.03125-2.2656-0.09375-2.7656s-0.16797-0.86719-0.3125-1.1094c-0.1875-0.3125-0.44922-0.55469-0.78125-0.73438-0.32422-0.17578-0.69531-0.26562-1.1094-0.26562-1.0234 0-1.8242 0.39844-2.4062 1.1875-0.58594 0.78125-0.875 1.8711-0.875 3.2656v7.5312h-4.8906v-21.281h4.8906v8.2031c0.73828-0.88281 1.5195-1.5391 2.3438-1.9688 0.83203-0.42578 1.75-0.64062 2.75-0.64062 1.7695 0 3.1133 0.54688 4.0312 1.6406 0.91406 1.0859 1.375 2.6562 1.375 4.7188z"/>
  </symbol>
  <symbol id="o" overflow="visible">
   <path d="m2.5781-20.406h5.875l7.4219 14v-14h4.9844v20.406h-5.875l-7.4219-14v14h-4.9844z"/>
  </symbol>
  <symbol id="n" overflow="visible">
   <path d="m2.1875-5.9688v-9.3438h4.9219v1.5312c0 0.83594-0.007813 1.875-0.015625 3.125-0.011719 1.25-0.015625 2.0859-0.015625 2.5 0 1.2422 0.03125 2.1328 0.09375 2.6719 0.070313 0.54297 0.17969 0.93359 0.32812 1.1719 0.20703 0.32422 0.47266 0.57422 0.79688 0.75 0.32031 0.16797 0.69141 0.25 1.1094 0.25 1.0195 0 1.8203-0.39062 2.4062-1.1719 0.58203-0.78125 0.875-1.8672 0.875-3.2656v-7.5625h4.8906v15.312h-4.8906v-2.2188c-0.74219 0.89844-1.5234 1.5586-2.3438 1.9844-0.82422 0.41406-1.7344 0.625-2.7344 0.625-1.7617 0-3.1055-0.53906-4.0312-1.625-0.92969-1.082-1.3906-2.6602-1.3906-4.7344z"/>
  </symbol>
  <symbol id="m" overflow="visible">
   <path d="m2.5781-20.406h8.7344c2.5938 0 4.582 0.57812 5.9688 1.7344 1.3945 1.1484 2.0938 2.7891 2.0938 4.9219 0 2.1367-0.69922 3.7812-2.0938 4.9375-1.3867 1.1562-3.375 1.7344-5.9688 1.7344h-3.4844v7.0781h-5.25zm5.25 3.8125v5.7031h2.9219c1.0195 0 1.8047-0.25 2.3594-0.75 0.5625-0.5 0.84375-1.2031 0.84375-2.1094 0-0.91406-0.28125-1.6172-0.84375-2.1094-0.55469-0.48828-1.3398-0.73438-2.3594-0.73438z"/>
  </symbol>
  <symbol id="l" overflow="visible">
   <path d="m2.3594-15.312h4.8906v15.031c0 2.0508-0.49609 3.6172-1.4844 4.7031-0.98047 1.082-2.4062 1.625-4.2812 1.625h-2.4219v-3.2188h0.85938c0.92578 0 1.5625-0.21094 1.9062-0.625 0.35156-0.41797 0.53125-1.2461 0.53125-2.4844zm0-5.9688h4.8906v4h-4.8906z"/>
  </symbol>
  <symbol id="k" overflow="visible">
   <path d="m14.719-14.828v3.9844c-0.65625-0.45703-1.3242-0.79688-2-1.0156-0.66797-0.21875-1.3594-0.32812-2.0781-0.32812-1.3672 0-2.4336 0.40234-3.2031 1.2031-0.76172 0.79297-1.1406 1.9062-1.1406 3.3438 0 1.4297 0.37891 2.543 1.1406 3.3438 0.76953 0.79297 1.8359 1.1875 3.2031 1.1875 0.75781 0 1.4844-0.10938 2.1719-0.32812 0.6875-0.22656 1.3203-0.56641 1.9062-1.0156v4c-0.76172 0.28125-1.5391 0.48828-2.3281 0.625-0.78125 0.14453-1.5742 0.21875-2.375 0.21875-2.7617 0-4.9219-0.70703-6.4844-2.125-1.5547-1.4141-2.3281-3.3828-2.3281-5.9062 0-2.5312 0.77344-4.5039 2.3281-5.9219 1.5625-1.4141 3.7227-2.125 6.4844-2.125 0.80078 0 1.5938 0.074219 2.375 0.21875 0.78125 0.13672 1.5547 0.35156 2.3281 0.64062z"/>
  </symbol>
 </defs>
 <g>
  <path d="m257.1 383.88-5.6016-6.3828s-7.5039-8.3438-21.84-10.246c-14.84-1.9023-46.535 2.4062-66.863 10.977-21.84 9.2383-30.016-4.4805-37.969-17.809l-0.83984-1.3984c-8.625-14.391-19.488-72.016-20.832-86.352-0.16797-2.0156-0.61719-5.0977-1.1211-8.9609-3.2461-24.023-10.023-73.922 6.7188-90.105 21-20.16 38.863-21.617 46.031-21.223l70.672-16.633 1.1211 1.1211s25.594 26.375 42.559 52.191c2.4648 4.4805 4.4258 5.543 4.9844 5.6016l7.7852-1.5117-5.4336 6.1055c-2.8555 3.4141-3.5273 5.6562-3.5273 5.7109l-0.50391 1.7344-1.793 0.33594c-7.0547 1.1211-16.742 10.414-21 24.078l-0.33594 1.2891c-3.9766 14-3.4727 38.305-1.2305 48.047 1.0625 4.7031 4.0898 9.0156 7.2227 13.551 3.5273 5.0391 7.168 10.305 8.6797 16.688 2.3516 10.078 10.473 14.336 10.809 14.504l5.0977 2.5742-18.762 8.9609c-1.1758 1.8477-4.5352 7.5586-5.9922 14v0.33594c-0.67187 2.6875-0.83984 5.1523-0.61719 7.3906v0.55859c0.39062 2.5742 1.1758 8.6797 1.793 16.406l0.67188 8.457zm-104.22-225.85c-7.168 0-22.23 2.5195-40.152 19.711-14.672 14.168-7.9531 64.008-5.0977 85.344 0.50391 3.9219 0.95312 7.0547 1.1758 9.1836 1.3438 14.281 12.266 71.062 20.047 84l0.83984 1.3984c7.8945 13.273 13.609 22.848 30.969 15.512 21.113-8.9609 54.266-13.383 69.777-11.426 9.0156 1.1758 15.625 4.5352 19.824 7.4492-0.44922-4.3672-0.89453-7.7852-1.1758-9.7422v-0.55859c-0.28125-2.5195-0.054688-5.543 0.61719-8.6797v-0.28125c2.0156-9.0156 7.168-16.574 7.3906-16.91l0.44922-0.61719 10.641-5.0977c-3.3594-2.8008-7.6719-7.7266-9.4062-15.289-1.2891-5.375-4.5938-10.137-7.8398-14.785-3.3594-4.7617-6.7773-9.7422-8.1211-15.457-2.3516-10.137-3.0781-35.449 1.2891-50.793l0.28125-1.0625c4.2578-14 14.113-25.426 23.91-27.945 0.33594-0.78516 0.89453-1.8477 1.7344-3.0781-1.6797-1.1758-3.5859-3.2461-5.543-6.7773-14.559-22.176-35.672-44.801-40.656-50.062l-68.434 16.07h-0.44922c-0.55859-0.054688-1.2305-0.11328-2.0156-0.11328z"/>
  <path d="m422.35 167.11-3.4727-1.8477c-7.7852-4.0898-24.809-18.535-24.809-35 0-9.5742 3.5273-18.145 9.9102-24.078 7.3906-6.832 18.258-9.9102 31.414-8.9023 25.762 2.0703 47.992 19.711 49.617 39.367 1.457 18.648-10.527 25.93-11.031 26.207l-2.6875 1.5664-1.2891-2.8555c-0.89453-1.9609-2.2383-3.8633-3.9766-5.6016l-2.1289-2.1289 2.2383-1.9609s0.33594-1.5664 0.28125-2.5742c0-5.7695-6.832-7.5586-10.137-7.5586s-4.3125 2.0703-4.3125 3.4727v3.3047l-3.3047-0.55859c-6.8867-1.1758-12.824 0-17.586 3.3594-5.375 3.8633-7.8398 9.7422-8.1758 11.871l-0.55859 3.8633zm8.1758-64.398c-9.5195 0-17.359 2.5742-22.793 7.6172-5.207 4.8164-8.1211 11.93-8.1211 19.938 0 11.648 11.031 23.016 18.871 28.281 1.5117-3.6953 4.5352-8.2891 9.2969-11.762 5.375-3.8633 11.816-5.4883 19.152-4.7031 1.2891-3.2461 4.5938-5.9375 9.2969-5.9375 6.5508 0 15.734 4.0312 15.734 13.047 0 0.67188 0 2.6328-0.55859 4.4258 0.72656 0.83984 1.3438 1.6797 1.9023 2.5742 2.7422-2.7422 6.8867-8.6797 6.0469-19.098-1.2305-14.895-19.375-32.199-44.465-34.215-1.5117-0.11328-2.9688-0.16797-4.3672-0.16797z"/>
  <path d="m317.02 319.82 3.9219-7.0547c0.22266-0.39062 21.281-38.754 18.031-69.777 0-18.031-11.93-27.215-12.039-27.328l-0.89453-0.67188-0.22266-1.1211c-1.625-9.7422-9.9102-18.426-20.16-21.113l-9.7422-2.5742 98.281-28.785c1.5117-0.55859 4.0312-2.0703 4.4258-3.2461 0-0.11328 0.11328-0.44922-0.44922-1.2305-3.9766-5.2656-40.375-45.695-40.711-46.145l-3.1367-3.4727 4.5938-1.1211s8.5664-2.0703 20.215-4.3125c13.664-2.6875 25.762-4.5938 36.008-5.6562 15.344-1.625 26.098-1.1758 32.09 1.1758 16.688 6.832 43.793 24.641 76.328 50.176 19.543 15.398 48.551 43.062 65.801 70.504l5.7109 9.0703-9.4062-5.0977c-0.61719-0.33594-12.879-6.4961-26.32 6.1055-8.9609 8.2305-12.938 15.566-16.406 22.008-3.8633 7.168-7.2227 13.383-15.848 17.305-6.1602 2.8008-14.84 1.8477-24.359-2.6875-11.816-5.6562-25.258-17.137-28.113-28.223l-0.22266-0.95312 0.39062-0.89453c5.3203-11.93 8.2891-21.785 8.7344-29.344 0.11328-1.1211 0.11328-2.1836 0.11328-3.1367-0.55859-16.184-6.0469-21.785-9.6875-25.48-0.67188-0.67188-1.2891-1.3438-1.8477-1.9023l-0.95312-1.0625 0.33594-1.3984s1.1758-5.2656-1.3984-10.863l-1.0625-2.2969 2.1836-1.2891c0.39062-0.22266 9.5195-5.9375 8.3438-20.945-1.2305-14.895-19.375-32.199-44.465-34.215-11.48-0.89453-20.945 1.6797-27.16 7.4492-5.207 4.8164-8.1211 11.93-8.1211 19.938 0 7.2812 4.3125 14 7.8945 18.312 4.8164 5.7695 10.527 9.9688 13.887 11.762l6.832 3.6406-7.5586 1.5664c-11.703 2.4062-15.848 9.5195-17.305 15.121l-0.33594 1.3438-1.2891 0.50391s-3.5273 2.0156-4.0312 15.848c-0.61719 15.457 4.1992 24.246 9.2383 33.488l1.3984 2.5195c5.7109 10.754 9.1836 26.824 9.1836 32.031 0 4.2578 1.1758 7.9531 1.1758 7.9531l0.78516 2.4648-102.54 43.008zm14.168-107.91c3.1914 2.8008 13.383 13.215 13.383 30.801 2.5742 24.754-9.1289 53.031-15.23 65.855l83.383-35c-0.39062-1.793-0.83984-4.3672-0.83984-7.2227 0-4.0898-3.1914-19.375-8.5117-29.398l-1.3438-2.5195c-5.1523-9.5195-10.527-19.375-9.9102-36.398 0.44922-12.824 3.3594-18.031 6.1602-20.047 2.2969-7.5586 7.6172-13.16 15.23-16.238-3.2461-2.4062-6.9453-5.7109-10.246-9.6875-4.1992-5.0391-9.2383-12.938-9.2383-21.895 0-9.5742 3.5273-18.145 9.9102-24.078 1.3984-1.3438 2.9688-2.5195 4.6484-3.5273-8.457 1.0625-17.977 2.6875-28.449 4.7617-6.3828 1.2305-11.816 2.4062-15.398 3.2461 9.0703 10.137 34.383 38.414 37.855 42.953 1.8477 2.4648 1.7344 4.7617 1.3438 6.1602-1.2891 4.3672-6.9453 6.6094-8.0625 7l-81.031 23.688c8.2891 4.5938 14.449 12.488 16.297 21.449zm149.02 24.191c2.6328 7.9531 13.273 18.145 24.863 23.688 7.8945 3.7539 15.062 4.7617 19.602 2.6328 6.8867-3.1367 9.5742-8.0625 13.273-14.84 3.5273-6.4961 7.9531-14.617 17.527-23.465 9.5195-8.9609 18.703-10.023 24.977-9.2383-17.137-24.695-42.672-48.887-60.426-62.832-14.449-11.312-27.777-21.113-39.535-29.062 2.5195 4.3125 4.0898 8.9023 4.4805 13.609 1.1211 14.223-5.6016 21.84-9.0703 24.754 1.5664 4.5938 1.3984 8.6797 1.1758 10.809 0.22266 0.22266 0.44922 0.44922 0.72656 0.72656 3.9766 4.0312 10.695 10.863 11.312 29.344 0 1.2305 0 2.4648-0.11328 3.6953-0.44922 7.8945-3.4141 18.09-8.793 30.238z"/>
  <path d="m159.82 216.16c-0.95312 0-1.793-0.11328-2.3516-0.33594-14.785-7.7266-13.383-20.16-13.328-20.664l0.22266-1.7344 1.625-0.55859c14.281-4.9844 21.449-7.168 27.273-2.1836l1.3438 1.1758-0.44922 1.7344c-0.72656 2.6875-0.83984 7.5586 6.3828 10.359l4.8711 1.9023-4.3125 3.0234c-5.1523 3.6406-15.793 7.3359-21.336 7.3359zm-10.137-18.703c0.28125 2.8555 1.8477 8.9023 10.078 13.273 1.2891 0.16797 8.2891-1.5117 14-4.1992-4.6484-3.4727-5.9922-8.2305-5.4336-12.488-3.0234-1.457-7.7266-0.33594-18.648 3.4141z"/>
  <path d="m179.93 209.66-1.3984-0.55859c-9.5742-3.7539-11.367-11.258-9.8008-17.078l1.1211-4.1992 3.3594 2.7422c0.55859 0.44922 1.1211 1.0078 1.6797 1.625 2.2969 2.5742 4.7031 3.7539 6.6094 4.6484 1.9023 0.89453 4.3125 2.0156 4.3125 4.7031 0.22266 2.1289-1.0625 4.4805-3.9766 6.6641l-1.9609 1.3438zm-5.0391-9.9688c0.78516 1.2891 2.1289 2.5742 4.2578 3.6406 0.39062-0.39063 0.67187-0.67188 0.83984-0.89453-0.28125-0.11328-0.55859-0.28125-0.83984-0.39062-1.1758-0.55859-2.6875-1.2305-4.2578-2.3516z"/>
  <path d="m203.28 231.84-1.0078-0.89453c-0.72656-0.67187-7.2812-6.6094-9.4648-11.031-1.5664-3.1367-1.3984-6.9453-1.1758-8.9609l0.22266-2.1289 2.1289-0.33594c2.4648-0.39062 6.4961-1.5117 7.7266-2.8008l1.2305-1.3438 1.7344 0.61719c1.2891 0.44922 2.7422 0.95312 4.4258 1.457 6.5508 1.9609 14 8.625 15.457 12.656 0.67188 1.793 0.22266 3.0781-0.28125 3.8086l-0.11328 0.11328c-4.6484 6.2148-18.031 8.3438-19.543 8.5664l-1.2891 0.16797zm-6.2148-18.258c0 1.5117 0.28125 2.9102 0.72656 3.8086 1.2305 2.5195 5.0391 6.3828 7.2227 8.457 4.5352-0.83984 11.145-2.8008 13.945-5.4336-1.3438-2.2383-6.7188-7.168-11.535-8.625-1.1211-0.33594-2.1836-0.67187-3.1367-1.0078-2.1836 1.457-5.1523 2.3516-7.2227 2.8008z"/>
  <path d="m191.18 214.59 0.39062-3.6406c0.22266-2.1289 0.95312-5.8789 3.0781-7.2812 2.1836-1.457 4.8711-0.50391 8.8477 0.89453l5.207 1.8477-2.9688 3.1367c-2.9688 3.0781-9.6328 4.2578-10.977 4.4805l-3.5859 0.55859z"/>
  <path d="m208.21 200.26h-0.11328c-7.6172-0.11328-10.586-2.5742-11.09-3.0781l-0.61719-0.83984c-2.0703-4.5938 4.6484-14.727 4.9844-15.176l0.83984-1.2891h1.5664c0.44922 0.054688 4.5938 0.28125 7.7852 3.9219 2.7422 3.0781 3.8633 7.5039 3.3594 13.215l-0.16797 1.9023-1.8477 0.50391c-1.9023 0.55859-3.4727 0.78516-4.7031 0.78516zm-6.5508-6.7188c0.95312 0.44922 3.0234 1.0625 6.4961 1.1211 0.44922 0 0.67188 0 1.2891-0.11328 0-3.0234-0.67188-5.4336-2.0156-6.9453-0.78516-0.89453-1.6797-1.3984-2.4062-1.6797-1.8477 3.0781-3.0781 6.1602-3.3594 7.6719z"/>
  <path d="m209.05 200.54 0.33594-4.0312c0.33594-3.9766-0.28125-7.1133-1.9023-8.9609-1.625-1.9023-3.8086-2.0156-3.8633-2.0703l-4.8164-0.28125 2.6328-4.0312c0.44922-0.67188 0.89453-1.2891 1.2891-1.7344 3.0781-3.8633 17.078-7.4492 21.281-8.457h0.67188c6.7773-0.054688 13.832 11.93 14.336 14.449l0.39062 2.0156-1.793 1.0078c-0.61719 0.33594-15.566 8.5117-24.586 11.031l-3.9219 1.0625zm0-18.93c0.83984 0.55859 1.7344 1.2305 2.5195 2.1289 2.0156 2.2969 3.1914 5.3203 3.4141 9.0703 6.1602-2.2969 13.777-6.1602 17.527-8.1211-1.793-3.0234-5.6016-7.8398-7.7266-8.1758-6.4414 1.5664-12.602 3.5859-15.793 5.1523z"/>
  <path d="m185.98 195.78c-3.6406 0-8.457-3.1367-12.938-8.3984l-1.1211-1.3438 0.67188-1.625c0.16797-0.44922 4.7617-10.473 20.609-6.2148l2.5742 0.67188-0.55859 2.5742c-1.0625 5.0391-3.5859 13.609-8.5117 14.223h-0.72656zm-7.2227-10.414c3.6406 3.8086 6.4414 4.9297 7.2227 4.8164 0.55859-0.39063 1.9609-2.9688 3.0781-7.1133-5.8789-0.95312-8.9023 0.89453-10.305 2.2969z"/>
  <path d="m175.89 190.62-2.8008-3.2461c-4.3672-5.1523-8.0625-12.098-10.754-19.938-0.33594-0.78516-0.55859-2.1836 0.67188-3.7539 2.5195-3.1367 12.098-7.7266 18.09-5.543 6.4961 2.3516 14.504 14.504 14.785 18.367 0.11328 1.3984-0.33594 3.7539-0.61719 5.0391l-0.61719 2.8555-2.8555-0.78516c-10.977-2.9102-13.887 2.8555-14.055 3.0781l-1.8477 3.9219zm-7.8945-23.969c2.2969 6.4414 4.9297 11.145 7.2227 14.391 2.5195-2.3516 7.168-4.7617 15.008-3.4727v-0.72656c-0.39062-2.0156-6.7188-11.871-11.09-13.441-3.0781-1.1211-9.1289 1.6797-11.199 3.2461z"/>
  <path d="m252.45 350.5c-0.61719 2.7422-0.89453 5.543-0.61719 8.2891l-2.0156 0.28125c-0.44922-3.6406-10.078-53.426-16.129-72.688l3.9219-1.1758c4.7617 15.176 11.762 49.391 14.84 65.238z"/>
  <path d="m249.87 362.15-1.0625-4.8711c-0.44922-3.5859-11.816-50.902-17.809-70.055l-0.83984-2.6875 9.2969-2.8008 0.83984 2.6328c5.4883 17.414 13.383 57.625 14.953 65.52v0.89453 0.28125c-0.61719 2.6875-0.78516 5.1523-0.55859 7.3906v2.5195l-2.5195 0.50391-2.1836 0.67188z"/>
  <path d="m302.23 245.5c-1.1211 0-2.2383-0.054687-3.3594-0.22266-25.145-3.8086-31.695-17.137-32.762-27.664-0.78516-7.7266 1.3984-13.945 1.5117-14.223 0-0.054687 0.83984-3.1914 4.5938-7.6719 0.83984-0.78516 13.777-12.039 34.664-8.457 12.77 3.3594 22.512 13.664 24.527 25.648 0.22266 1.457 0.39062 2.9102 0.39062 4.3672 0 3.1367-0.72656 6.3828-2.1836 9.6328-4.2578 9.5742-14.785 18.535-27.273 18.535zm-3.4727-53.367c-13.945 0-22.457 7.3906-22.512 7.5039-2.5742 3.1367-3.2461 5.4336-3.2461 5.4336-0.11328 0.28125-1.9609 5.6016-1.2891 11.984 1.2891 12.266 10.922 20.105 28 22.68 11.145 1.3984 20.887-6.4961 24.754-15.062 1.1211-2.5195 1.7344-5.0391 1.7344-7.3359 0-1.1758-0.11328-2.3516-0.28125-3.4727-1.625-9.7422-9.9102-18.426-20.16-21.113-2.4062-0.39062-4.7617-0.61719-6.9453-0.61719z"/>
  <path d="m330.23 237.78c0 16.352-15.68 26.098-36.121 26.098s-32.031-12.488-32.031-26.098 6.832-20.383 6.832-20.383c1.0078 9.6328 7.1133 21.672 30.352 25.199 12.375 1.5664 23.406-7 27.719-16.688 0 0 3.2461 3.0781 3.2461 11.93z"/>
  <path d="m294.11 266.67c-22.848 0-34.832-14.559-34.832-28.895 0-14.336 7.3359-22.062 7.6719-22.398l4.1445-4.1445 0.61719 5.8242c1.2891 12.266 10.922 20.105 28 22.68 11.145 1.3984 20.887-6.4961 24.754-15.062l1.625-3.5859 2.8555 2.6875c0.44922 0.39062 4.1445 4.1992 4.1445 13.945 0 17.305-15.625 28.895-38.922 28.895zm-26.488-42.223c-1.3984 3.0234-2.7422 7.4492-2.7422 13.328 0 11.594 10.023 23.297 29.23 23.297 16.574 0 33.32-7.2227 33.32-23.297 0-2.4648-0.28125-4.4258-0.67188-5.9375-5.7695 8.3438-16.129 14.953-27.887 13.441-19.938-3.0234-28.168-12.039-31.246-20.887z"/>
  <path d="m301.22 284.2c-1.625 0-3.2461-0.11328-4.8711-0.28125-21.336-3.3594-36.457-11.258-45.078-23.52-10.023-14.336-7.2812-29.457-7.168-30.129 4.5352-15.176 15.289-27.105 25.648-28.672l4.6484-0.72656-1.5664 4.4258s-1.8477 5.375-1.1758 11.762l0.16797 1.3438-0.95312 0.95312s-5.9922 6.2734-5.9922 18.426 10.023 23.297 29.23 23.297c16.574 0 33.32-7.2227 33.32-23.297 0-7.2812-2.4062-9.9102-2.4648-9.9688l-1.2891-1.3438 0.72656-1.793c1.1211-2.4648 1.7344-5.0391 1.7344-7.3359 0-1.1758-0.11328-2.3516-0.28125-3.4727l-1.1758-6.9453 5.6016 4.2578s14.281 11.031 14.281 31.527c0 10.695-5.6016 22.008-14.895 30.238-8.2305 7.3359-18.199 11.199-28.449 11.199zm-51.574-52.695c0 0.39062-2.4062 13.273 6.2734 25.648 7.6719 10.977 21.559 18.09 41.215 21.168 10.137 1.2305 20.441-2.1836 28.785-9.5742 8.0625-7.1133 13.047-17.137 13.047-26.098 0-10.305-4.0898-17.754-7.5039-22.23-0.22266 1.625-0.67188 3.3047-1.3438 4.9297 1.2305 1.9609 2.8555 5.8242 2.8555 12.32 0 17.305-15.625 28.895-38.922 28.895-23.297 0-34.832-14.559-34.832-28.895 0-11.703 4.7031-18.816 6.7188-21.336-0.16797-2.9102 0-5.6016 0.39062-7.7852-6.3281 3.3594-13.383 11.648-16.742 22.848z"/>
  <path d="m442.01 213.92c-43.734-7.3906-22.344-41.16-21.84-42 1.2891 7.8945 6.7188 18.258 25.93 22.902 13.273 1.0078 21.559-7.5039 25.535-15.008 10.527 15.68-4.3672 37.465-29.625 34.047z"/>
  <path d="m447.11 217.05c-1.793 0-3.6406-0.11328-5.4883-0.39063h-0.11328c-14.727-2.5195-24.137-8.2305-27.945-16.969-5.8789-13.441 3.8633-28.672 4.2578-29.289l3.9219-6.1055 1.1758 7.168c1.6797 10.246 9.6875 17.191 23.801 20.609 13.215 1.0078 20.047-9.1836 22.398-13.551l2.1836-4.1445 2.6328 3.8633c5.1523 7.6172 5.207 16.969 0.22266 25.031-5.4336 8.7344-15.512 13.777-27.047 13.777zm-4.7031-5.9375c13.777 1.8477 22.961-4.3672 26.992-10.809 2.9102-4.7031 3.5859-10.023 1.9023-14.84-4.1445 5.543-12.32 13.16-25.426 12.152-15.68-3.7539-23.016-11.09-26.32-18.199-1.9023 4.8711-3.5859 11.871-0.89453 18.031 3.0234 6.8867 11.031 11.535 23.742 13.664z"/>
  <path d="m432.43 121.3c-7.4492 0-15.734-4.9844-15.734-11.648 0-5.4336 3.7539-10.977 10.977-10.977 6.4414 0 11.48 3.5273 14.449 10.137 1.1758 2.5742 0.95312 5.6016-0.61719 8.0078-1.8477 2.8555-5.1523 4.4805-9.0703 4.4805zm-4.7617-17.023c-5.0977 0-5.375 4.4805-5.375 5.375 0 2.6328 4.9297 6.0469 10.137 6.0469 2.0156 0 3.5859-0.67187 4.3672-1.9023 0.50391-0.83984 0.61719-1.793 0.22266-2.6875-2.0703-4.6484-5.1523-6.8867-9.3516-6.8867z"/>
  <path d="m423.59 146.5c-12.207 0-17.809-6.7773-17.809-13.047 0-3.8633 2.0703-5.9375 4.1992-8.1211 2.5742-2.5742 8.0625-2.1836 10.246-1.8477 2.1289 0.28125 7.5039 1.3438 10.754 4.5938 3.1914 3.1914 4.3125 8.457 2.6328 12.488-1.5664 3.7539-5.207 5.9375-10.078 5.9375zm-6.7773-17.641c-1.3984 0-2.4648 0.16797-2.9102 0.50391-1.9609 1.9609-2.5195 2.6328-2.5195 4.0898 0 3.6953 4.1992 7.4492 12.207 7.4492 2.5742 0 4.1992-0.83984 4.9297-2.4648 0.78516-1.9609 0.16797-4.8164-1.3984-6.3828-2.2383-2.2383-7.0547-3.1914-10.246-3.1914z"/>
  <path d="m469 134.85h-0.054688c-7.5039 0-14.055-4.7617-14.055-10.191 0-4.1445 3.0781-10.305 9.6328-10.305 11.199 0 14.559 6.1602 15.398 11.312 0.33594 2.1836-0.16797 4.1992-1.5117 5.7695-2.8008 3.3047-8.3984 3.4141-9.3516 3.4141zm-4.5352-14.895c-3.0234 0-4.0312 3.4727-4.0312 4.7031 0 1.5664 3.3047 4.5938 8.5117 4.5938 1.3438-0.11328 4.2578-0.44922 5.1523-1.5117 0.11328-0.11328 0.33594-0.39062 0.22266-1.2305-0.72656-4.6484-3.6953-6.6094-9.8555-6.6094z"/>
  <path d="m386.79 235.37c0 8.0625-2.6328 12.602-10.922 12.602-8.2891 0-15.68-5.8789-15.68-13.945 0-8.0625 2.6328-14.672 10.922-14.672 8.2891 0 15.68 7.9531 15.68 16.016z"/>
  <path d="m375.87 250.77c-10.191 0-18.48-7.5039-18.48-16.742 0-15.176 8.5664-17.473 13.719-17.473 9.6875 0 18.48 8.9609 18.48 18.816 0 3.8086 0 15.398-13.719 15.398zm-4.7617-28.617c-2.2383 0-8.1211 0-8.1211 11.871 0 6.1602 5.7695 11.145 12.879 11.145 5.2656 0 8.1211-1.5664 8.1211-9.8008 0-6.6641-6.3828-13.215-12.879-13.215z"/>
  <path d="m191.18 245.34c-29.344 0-64.793-20.719-64.793-46.426 0-24.414 19.938-44.742 47.375-48.441 24.695-3.3594 58.297 1.9609 71.68 28.055 6.4414 12.488 5.4883 28.391-2.4648 41.441-9.8555 16.129-28.727 25.367-51.801 25.367zm-3.8633-90.16c-4.4258 0-8.7344 0.28125-12.77 0.83984-24.641 3.3047-42.559 21.336-42.559 42.84 0 21.504 32.535 40.824 59.191 40.824 28.895 0 41.887-14.223 47.039-22.68 6.9453-11.367 7.8398-25.199 2.2969-35.953-9.9102-19.32-32.703-25.93-53.199-25.93z"/>
  <path d="m274.12 200.37c-1.7344 0-5.7109-0.95313-9.7422-8.2891-14.617-22.176-35.727-44.801-40.711-50.062l-14.559 3.4141 13.328-13.832 125.89-26.32c1.5117-0.33594 9.4648-1.9023 13.105 1.6797 1.625 1.793 37.016 41.16 41.16 46.648 1.8477 2.5195 1.7344 4.7617 1.2891 6.2148-1.3438 4.3672-6.9453 6.6094-8.0625 7h-0.16797l-89.207 26.152-0.61719-0.11328c-18.199-3.1367-29.566 6.7188-29.68 6.832l-0.55859 0.50391-0.72656 0.16797s-0.39062 0.054688-0.78516 0.054688zm-47.938-63.785 0.44922 0.44922s25.594 26.375 42.559 52.191c1.9023 3.4727 3.5273 4.9297 4.4258 5.375 3.5273-2.6875 15.344-10.137 32.594-7.3906l87.922-25.703c1.6797-0.61719 4.1445-2.1289 4.4805-3.3047 0-0.11328 0.16797-0.44922-0.44922-1.2305-3.9766-5.3203-40.375-45.754-40.711-46.145-0.83984-0.83984-4.8711-0.78516-7.8398-0.11328l-123.43 25.816z"/>
  <path d="m415.35 99.062c-12.098 1.2305-25.258 3.5273-35.727 5.6016v-1.9023s3.0781-2.6328 14.672-5.375c11.594-2.7422 20.273-1.3438 21.055 1.6797z"/>
  <path d="m376.82 108.02v-6.5508l0.95312-0.83984c0.61719-0.50391 4.1992-3.2461 15.848-5.9922 10.695-2.5195 22.902-2.4062 24.414 3.7539l0.78516 3.1367-3.1914 0.33594c-10.023 1.0078-21.953 2.9102-35.449 5.543l-3.3594 0.67188z"/>
  <path d="m236.21 444.92c-25.199 19.098-35.449 18.426-47.711 19.098-49.672 2.7422-55.887-52.473-68.152-98.113s-36.793-155.4-10.922-196.95c5.4336-10.246 30.688-21.785 45.641-13.609-9.5195-0.67188-25.871 2.7422-44.297 20.441-18.426 17.695-6.1602 82.488-4.7617 96.77 1.3984 14.281 12.266 71.566 20.441 85.176 8.1758 13.609 15.008 26.602 35.223 18.031 20.273-8.5664 52.641-13.273 68.32-11.199 15.68 2.0703 23.574 11.199 23.574 11.199 1.625 21.391 1.1758 55.16-17.414 69.215z"/>
  <path d="m184.86 466.93c-42.504 0-52.809-42-62.777-82.602-1.457-5.9375-2.9102-11.93-4.4805-17.695-9.5195-35.449-38.414-154.5-10.586-199.14 3.3047-6.1602 12.656-12.543 23.297-15.734 10.023-3.0234 19.266-2.5742 26.098 1.1211l11.312 6.1602-12.824-0.89453c-6.1602-0.44922-22.398 0.61719-42.168 19.656-14.727 14.223-7.9531 64.121-5.0977 85.457 0.50391 3.8633 0.95312 7 1.1758 9.0703 1.3438 14.281 12.32 71.121 20.047 84l0.83984 1.457c7.8945 13.215 13.609 22.793 30.91 15.457 21.223-8.9609 54.375-13.383 69.777-11.426 16.52 2.1836 24.977 11.762 25.312 12.152l0.61719 0.67188v0.89453c2.7422 35.672-3.6953 60.48-18.48 71.625-24.305 18.426-35.336 18.984-46.984 19.543l-2.2383 0.11328c-1.2891 0.054688-2.5195 0.11328-3.7539 0.11328zm-68.992-130.59c2.7422 11.984 5.3203 21.953 7.168 28.785 1.5664 5.8242 3.0234 11.816 4.4805 17.809 10.137 41.441 19.602 80.414 60.762 78.23l2.2969-0.11328c11.199-0.55859 20.945-1.0078 43.848-18.426 16.465-12.434 18.031-42.391 16.406-65.742-2.0156-1.9609-9.1836-8.0625-21.223-9.6328-14.727-1.9023-46.48 2.3516-66.922 10.977-21.785 9.1836-29.961-4.4805-37.855-17.695l-0.83984-1.457c-2.6328-4.3672-5.4883-12.824-8.1758-22.793zm18.312-179.87c-0.72656 0.16797-1.457 0.39062-2.2383 0.61719-8.9609 2.6875-17.414 8.2305-20.047 13.16-0.28125 0.44922-0.55859 0.95312-0.83984 1.3984 8.3984-7.6719 16.297-12.375 23.129-15.176z"/>
  <path d="m294.79 334.6c-16.129 0-22.176-4.1445-22.793-4.6484 0 0-10.359-5.3203-13.328-17.977-1.2891-5.375-4.5938-10.191-7.8398-14.785-3.3047-4.7617-6.7773-9.6875-8.1211-15.457-2.4062-10.527-3.0781-36.512 1.5117-51.742l5.4336 1.3438c-0.11328 0.55859-2.4648 13.441 6.2148 25.816 7.6719 10.977 21.559 18.09 41.215 21.168 10.137 1.2305 20.441-2.1836 28.785-9.5742 8.0625-7.1133 13.047-17.137 13.047-26.098l5.6016-0.28125c3.4141 32.703-17.754 71.398-18.703 73.023l-0.16797 0.28125c-0.55859 0.78516-14 18.871-30.855 18.871zm-48.16-82.879c-0.55859 11.199 0.16797 22.734 1.5664 28.785 1.0625 4.7031 4.0898 8.9609 7.2227 13.496 3.5273 5.0391 7.168 10.305 8.6797 16.688 2.4062 10.191 10.695 14.449 10.809 14.504 0.44922 0.28125 5.6562 3.8086 19.879 3.8086 13.383 0 25.031-14.84 26.266-16.406 1.1758-2.1836 13.441-25.312 17.191-49.617-2.2969 3.6406-5.207 7-8.5664 10.023-9.5742 8.457-21.336 12.32-33.266 10.922-21.336-3.3594-36.457-11.258-45.078-23.52-2.0156-2.9102-3.5273-5.8242-4.6484-8.6797z"/>
  <path d="m599.43 275.91c-16.352 40.879-44.969 34.047-72.238 22.512-27.273-11.594-60.648-41.551-60.648-41.551s5.543-9.1836 10.754-20.887c3.9219 15.176 33.543 35.895 48.551 29.062s12.266-21.113 31.586-38.863c15.23-14.336 29.512-6.5508 29.512-6.5508 12.32 19.602 19.098 39.762 12.488 56.281z"/>
  <path d="m561.29 310.07c-11.762 0-24.078-4.3672-35.223-9.0703-27.383-11.648-60.031-40.824-61.434-42.055l-1.7344-1.5664 1.1758-1.9609s5.4883-9.1836 10.586-20.609l3.2461-7.3359 2.0156 7.7852c2.0703 8.0625 13.047 18.816 25.031 24.586 7.8945 3.7539 15.062 4.7617 19.656 2.6875 6.9453-3.1367 9.5742-8.0625 13.273-14.895 3.5273-6.4961 7.9531-14.617 17.586-23.465 16.465-15.512 32.09-7.3359 32.762-6.9453l0.67188 0.33594 0.39062 0.61719c14.727 23.406 18.984 43.176 12.711 58.855-6.3281 15.793-14.727 25.703-25.762 30.297-4.8164 2.0156-9.8008 2.8008-14.953 2.8008zm-91.223-53.816c7.1133 6.1602 35.113 29.793 58.184 39.594 14.895 6.3281 31.977 11.984 45.809 6.2734 9.5742-3.9766 16.969-12.879 22.734-27.215 5.4883-13.777 1.5117-31.641-11.816-53.09-2.6875-1.1758-13.719-4.8164-25.648 6.4414-8.9609 8.2305-12.938 15.566-16.465 22.062-3.8633 7.168-7.2227 13.383-15.902 17.305-6.1602 2.8008-14.84 1.8477-24.359-2.7422-9.5742-4.5938-20.273-13.047-25.48-22.008-2.9102 5.9922-5.6016 10.863-7.0547 13.441z"/>
  <path d="m467.88 157.81-1.8477-1.793c-3.0234-2.9688-7.2812-5.2656-12.543-6.8867-1.625-0.50391-3.2461-0.89453-4.7031-1.1211l-2.2969-0.39062v-2.3516c0-4.4805 3.6953-9.0703 9.9102-9.0703 6.2148 0 15.734 3.5273 15.734 13.047 0 1.0078 0 4.9297-2.2383 6.9453l-1.9609 1.7344zm-15.062-14.727c0.72656 0.16797 1.5117 0.39062 2.2383 0.61719 4.4258 1.3438 8.2305 3.1367 11.367 5.375-0.11328-5.6016-6.8867-7.3906-10.137-7.3906-1.6797 0-2.8008 0.61719-3.4727 1.3984z"/>
  <path d="m428.9 281.51c-9.4648 0-14.281-3.9219-14.559-4.1445l-0.61719-0.50391-0.28125-0.72656s-1.5117-4.5938-1.5117-9.7422c0-4.0898-3.2461-19.375-8.5117-29.344l-1.3984-2.5742c-5.1523-9.5195-10.473-19.32-9.8555-36.344 0.55859-14.785 4.3672-19.488 7.5039-20.777l5.207-2.1836-1.457 5.4883c-1.1758 4.4805-1.0625 9.7422 0.33594 14.785 3.1367 11.258 19.602 27.945 45.023 27.945 25.426 0 34.551-18.258 34.945-19.039l6.1055-11.426-0.83984 12.879c-0.55859 8.1758-3.6406 18.703-9.1836 31.246-5.207 11.703-10.641 20.832-10.863 21.223-0.33594 0.55859-8.9023 15.289-26.77 21-5.1523 1.625-9.5742 2.2383-13.273 2.2383zm-10.359-8.0078c2.0156 1.2305 9.1289 4.5352 21.953 0.44922 15.734-5.0391 23.574-18.367 23.633-18.48 0.054688-0.11328 5.543-9.2383 10.586-20.664 3.0781-7 5.375-13.215 6.8867-18.762-6.2148 6.0469-16.801 12.938-32.762 12.938-28.336 0-46.816-19.098-50.398-32.031-0.16797-0.61719-0.33594-1.1758-0.44922-1.793-0.054688 1.0078-0.16797 2.0156-0.16797 3.1914-0.61719 15.457 4.1445 24.191 9.1289 33.434l1.3984 2.6328c5.7109 10.695 9.1836 26.77 9.1836 31.977 0 3.0234 0.61719 5.7695 0.95312 7.1133z"/>
  <path d="m448.22 197.68c-0.78516 0-1.5664 0-2.3516-0.11328-21.055-5.0391-27.047-16.52-28.449-25.258-0.72656-4.6484-0.22266-8.5117 0-9.9688 0.50391-3.4727 3.7539-10.754 10.414-15.566 6.0469-4.3672 13.441-5.8789 21.895-4.3672 1.6797 0.28125 3.5273 0.72656 5.375 1.2891 6.1602 1.9023 11.199 4.6484 14.84 8.2891 2.1836 2.1289 3.9219 4.5938 5.1523 7.2812 2.4062 5.3203 2.2969 10.305 1.9609 12.992l-0.22266 1.3438c-0.44922 2.2969-1.3984 4.9297-2.8008 7.5039-2.1289 4.0312-10.023 16.574-25.816 16.574zm-4.6484-50.176c-4.7617 0-8.9609 1.2891-12.488 3.8633-5.375 3.8633-7.8398 9.7422-8.1211 11.816-0.16797 1.3438-0.61719 4.5352 0 8.2891 1.6797 10.246 9.6875 17.191 23.801 20.609 13.215 1.0078 20.047-9.1836 22.398-13.551 1.3984-2.6875 1.9609-4.7617 2.1836-5.8242v-0.22266c0.28125-1.2891 0.89453-5.9375-1.3438-10.863-0.95312-2.0703-2.2969-3.9766-3.9766-5.6016-3.0234-2.9688-7.2812-5.3203-12.602-6.8867-1.625-0.50391-3.2461-0.89453-4.7031-1.1211-1.793-0.33594-3.4727-0.44922-5.1523-0.44922z"/>
  <path d="m448.79 228.98c-28.336 0-46.816-19.098-50.398-32.031-1.6797-5.9922-1.793-12.266-0.39062-17.695 2.6328-10.023 10.246-16.855 21.559-19.207l3.9219-0.78516-0.55859 3.9219c-0.16797 1.3438-0.61719 4.5352 0 8.2891l0.16797 1.0625-0.55859 0.89453s-8.5117 13.383-3.8086 24.023c3.0234 6.8867 11.031 11.48 23.742 13.664 13.719 1.8477 22.902-4.3672 26.938-10.809 3.8086-6.1055 3.7539-13.16-0.11328-18.93l-0.95312-1.3984 0.78516-1.457c1.457-2.8008 2.0156-4.9297 2.2383-5.9375l1.1211-5.7109 3.7539 4.4258c0.44922 0.50391 1.0078 1.0625 1.5664 1.6797 3.9766 4.0312 10.641 10.809 11.258 29.289 0 1.1758 0 2.3516-0.054688 3.6406l-0.33594 1.1211c-0.44922 0.89453-11.93 22.008-39.871 22.008zm-31.754-62.441c-8.8477 3.0234-12.32 9.1836-13.609 14.113-1.1758 4.4805-1.0625 9.7422 0.33594 14.785 3.1367 11.258 19.602 27.945 45.023 27.945 22.512 0 32.816-15.457 34.664-18.535v-2.4648c-0.44922-14.113-4.6484-20.16-8.1758-23.91-0.16797 0.39063-0.33594 0.78516-0.55859 1.2305 4.2578 7.3359 4.0312 16.07-0.67188 23.574-6.3281 10.137-18.703 15.23-32.535 13.383-14.785-2.5195-24.191-8.2305-28.055-16.969-5.1523-11.703 1.625-24.809 3.6953-28.391-0.22266-1.7344-0.28125-3.4141-0.22266-4.8164z"/>
  <use x="70" y="644" xlink:href="#u"/>
  <use x="90.550781" y="644" xlink:href="#b"/>
  <use x="104.359375" y="644" xlink:href="#a"/>
  <use x="123.347656" y="644" xlink:href="#f"/>
  <use x="142.242188" y="644" xlink:href="#d"/>
  <use x="155.628906" y="644" xlink:href="#a"/>
  <use x="174.617188" y="644" xlink:href="#j"/>
  <use x="204.410156" y="644" xlink:href="#i"/>
  <use x="224.453125" y="644" xlink:href="#c"/>
  <use x="252.453125" y="644" xlink:href="#h"/>
  <use x="274.011719" y="644" xlink:href="#c"/>
  <use x="292.265625" y="644" xlink:href="#f"/>
  <use x="311.15625" y="644" xlink:href="#g"/>
  <use x="340.839844" y="644" xlink:href="#t"/>
  <use x="364.082031" y="644" xlink:href="#s"/>
  <use x="389.949219" y="644" xlink:href="#c"/>
  <use x="408.203125" y="644" xlink:href="#a"/>
  <use x="427.191406" y="644" xlink:href="#b"/>
  <use x="70" y="672" xlink:href="#r"/>
  <use x="82.183594" y="672" xlink:href="#b"/>
  <use x="95.992188" y="672" xlink:href="#e"/>
  <use x="115.226562" y="672" xlink:href="#q"/>
  <use x="154.152344" y="672" xlink:href="#d"/>
  <use x="167.535156" y="672" xlink:href="#p"/>
  <use x="187.46875" y="672" xlink:href="#a"/>
  <use x="216.207031" y="672" xlink:href="#o"/>
  <use x="239.640625" y="672" xlink:href="#e"/>
  <use x="258.878906" y="672" xlink:href="#n"/>
  <use x="278.8125" y="672" xlink:href="#g"/>
  <use x="308.492188" y="672" xlink:href="#m"/>
  <use x="329.015625" y="672" xlink:href="#b"/>
  <use x="342.820312" y="672" xlink:href="#e"/>
  <use x="362.058594" y="672" xlink:href="#l"/>
  <use x="371.65625" y="672" xlink:href="#a"/>
  <use x="390.648438" y="672" xlink:href="#k"/>
  <use x="407.242188" y="672" xlink:href="#d"/>
 </g>
</svg>
